SplineFontDB: 3.2
FontName: MLGamer's_monospace_italic
FullName: MLGamer's monospace (italic)
FamilyName: MLGamer's monospace
Weight: Regular
Copyright: (C) Seriy MLGamer, 2020
UComments: "2020-11-17: Created with FontForge (http://fontforge.org)"
Version: 2.0
ItalicAngle: -12
UnderlinePosition: 0
UnderlineWidth: 0
Ascent: 768
Descent: 0
InvalidEm: 0
LayerCount: 2
Layer: 0 1 "Back" 1
Layer: 1 1 "Fore" 0
XUID: [1021 1004 -2098412171 30531]
StyleMap: 0x0001
FSType: 0
OS2Version: 0
OS2_WeightWidthSlopeOnly: 0
OS2_UseTypoMetrics: 1
CreationTime: 1605637523
ModificationTime: 1607018334
PfmFamily: 49
TTFWeight: 400
TTFWidth: 5
LineGap: 64
VLineGap: 0
OS2TypoAscent: 0
OS2TypoAOffset: 1
OS2TypoDescent: 0
OS2TypoDOffset: 1
OS2TypoLinegap: 64
OS2WinAscent: 0
OS2WinAOffset: 1
OS2WinDescent: 0
OS2WinDOffset: 1
HheadAscent: 0
HheadAOffset: 1
HheadDescent: 0
HheadDOffset: 1
OS2Vendor: 'PfEd'
MarkAttachClasses: 1
DEI: 91125
LangName: 1033
Encoding: UnicodeFull
UnicodeInterp: none
NameList: AGL For New Fonts
DisplaySize: -48
AntiAlias: 1
FitToEm: 0
WinInfo: 32 16 6
BeginPrivate: 0
EndPrivate
Grid
-353.65625 1152 m 0
 -353.65625 -384 l 1024
EndSplineSet
TeXData: 1 0 0 524288 262144 174762 0 1048576 174762 783286 444596 497025 792723 393216 433062 380633 303038 157286 324010 404750 52429 2506097 1059062 262144
BeginChars: 1114112 164

StartChar: exclam
Encoding: 33 33 1
Width: 384
Flags: W
LayerCount: 2
Fore
SplineSet
264 640 m 25,0,-1
 328 640 l 25,1,-1
 232 192 l 25,2,-1
 168 192 l 25,3,-1
 264 640 l 25,0,-1
155 128 m 25,4,-1
 219 128 l 25,5,-1
 205 64 l 25,6,-1
 141 64 l 25,7,-1
 155 128 l 25,4,-1
EndSplineSet
EndChar

StartChar: quotedbl
Encoding: 34 34 2
Width: 384
Flags: W
LayerCount: 2
Fore
SplineSet
328 640 m 25,0,-1
 392 640 l 25,1,-1
 351 448 l 25,2,-1
 287 448 l 25,3,-1
 328 640 l 25,0,-1
200 640 m 25,4,-1
 264 640 l 25,5,-1
 223 448 l 25,6,-1
 159 448 l 25,7,-1
 200 640 l 25,4,-1
EndSplineSet
EndChar

StartChar: numbersign
Encoding: 35 35 3
Width: 384
Flags: W
LayerCount: 2
Fore
SplineSet
61 288 m 25,0,-1
 381 288 l 25,1,-1
 367 224 l 25,2,-1
 47 224 l 25,3,-1
 61 288 l 25,0,-1
102 480 m 25,4,-1
 422 480 l 25,5,-1
 408 416 l 25,6,-1
 88 416 l 25,7,-1
 102 480 l 25,4,-1
360 640 m 25,8,-1
 424 640 l 25,9,-1
 237 64 l 25,10,-1
 173 64 l 25,11,-1
 360 640 l 25,8,-1
232 640 m 25,12,-1
 296 640 l 25,13,-1
 109 64 l 25,14,-1
 45 64 l 25,15,-1
 232 640 l 25,12,-1
EndSplineSet
EndChar

StartChar: dollar
Encoding: 36 36 4
Width: 384
Flags: W
LayerCount: 2
Fore
SplineSet
291 768 m 25,0,-1
 355 768 l 25,1,-1
 178 -64 l 25,2,-1
 114 -64 l 25,3,-1
 291 768 l 25,0,-1
392 640 m 25,4,-1
 442 576 l 25,5,-1
 415 448 l 25,6,-1
 351 448 l 25,7,-1
 371 544 l 25,8,-1
 346 576 l 25,9,-1
 218 576 l 25,10,-1
 179 544 l 25,11,-1
 152 416 l 25,12,-1
 177 384 l 25,13,-1
 337 384 l 25,14,-1
 388 320 l 25,15,-1
 347 128 l 25,16,-1
 269 64 l 25,17,-1
 77 64 l 25,18,-1
 27 128 l 25,19,-1
 54 256 l 25,20,-1
 118 256 l 25,21,-1
 98 160 l 25,22,-1
 123 128 l 25,23,-1
 251 128 l 25,24,-1
 290 160 l 25,25,-1
 317 288 l 25,26,-1
 292 320 l 25,27,-1
 132 320 l 25,28,-1
 81 384 l 25,29,-1
 122 576 l 25,30,-1
 200 640 l 25,31,-1
 392 640 l 25,4,-1
EndSplineSet
EndChar

StartChar: percent
Encoding: 37 37 5
Width: 384
Flags: W
LayerCount: 2
Fore
SplineSet
322 160 m 25,0,-1
 258 160 l 25,1,-1
 244 96 l 25,2,-1
 308 96 l 25,3,-1
 322 160 l 25,0,-1
264 192 m 25,4,-1
 328 192 l 25,5,-1
 354 160 l 25,6,-1
 340 96 l 25,7,-1
 301 64 l 25,8,-1
 237 64 l 25,9,-1
 212 96 l 25,10,-1
 226 160 l 25,11,-1
 264 192 l 25,4,-1
225 608 m 25,12,-1
 161 608 l 25,13,-1
 147 544 l 25,14,-1
 211 544 l 25,15,-1
 225 608 l 25,12,-1
168 640 m 25,16,-1
 232 640 l 25,17,-1
 257 608 l 25,18,-1
 243 544 l 25,19,-1
 204 512 l 25,20,-1
 140 512 l 25,21,-1
 115 544 l 25,22,-1
 129 608 l 25,23,-1
 168 640 l 25,16,-1
392 640 m 25,24,-1
 456 640 l 25,25,-1
 77 64 l 25,26,-1
 13 64 l 25,27,-1
 392 640 l 25,24,-1
EndSplineSet
EndChar

StartChar: ampersand
Encoding: 38 38 6
Width: 384
Flags: W
LayerCount: 2
Fore
SplineSet
250 576 m 25,0,-1
 218 576 l 25,1,-1
 179 544 l 25,2,-1
 166 480 l 25,3,-1
 191 448 l 25,4,-1
 223 448 l 25,5,-1
 262 480 l 25,6,-1
 275 544 l 25,7,-1
 250 576 l 25,0,-1
164 320 m 25,8,-1
 125 288 l 1,9,-1
 98 160 l 25,10,-1
 123 128 l 25,11,-1
 251 128 l 25,12,-1
 290 160 l 25,13,-1
 296 192 l 25,14,-1
 196 320 l 25,15,-1
 164 320 l 25,8,-1
200 640 m 25,16,-1
 296 640 l 25,17,-1
 346 576 l 25,18,-1
 319 448 l 25,19,-1
 241 384 l 25,20,-1
 317 288 l 25,21,-1
 337 384 l 25,22,-1
 401 384 l 25,23,-1
 367 224 l 25,24,-1
 418 160 l 25,25,-1
 411 128 l 25,26,-1
 347 128 l 25,27,-1
 269 64 l 25,28,-1
 77 64 l 25,29,-1
 27 128 l 25,30,-1
 68 320 l 25,31,-1
 145 384 l 25,32,-1
 95 448 l 25,33,-1
 122 576 l 25,34,-1
 200 640 l 25,16,-1
EndSplineSet
EndChar

StartChar: quotesingle
Encoding: 39 39 7
Width: 384
Flags: W
LayerCount: 2
Fore
SplineSet
264 640 m 25,0,-1
 328 640 l 1,1,-1
 287 448 l 25,2,-1
 223 448 l 25,3,-1
 264 640 l 25,0,-1
EndSplineSet
EndChar

StartChar: parenleft
Encoding: 40 40 8
Width: 384
Flags: W
LayerCount: 2
Fore
SplineSet
328 640 m 1,0,-1
 392 640 l 1,1,-1
 314 576 l 1,2,-1
 223 448 l 1,3,-1
 182 256 l 1,4,-1
 219 128 l 1,5,-1
 269 64 l 1,6,-1
 205 64 l 1,7,-1
 155 128 l 1,8,-1
 118 256 l 1,9,-1
 159 448 l 1,10,-1
 250 576 l 1,11,-1
 328 640 l 1,0,-1
EndSplineSet
EndChar

StartChar: parenright
Encoding: 41 41 9
Width: 384
Flags: W
LayerCount: 2
Fore
SplineSet
264 640 m 1,0,-1
 314 576 l 1,1,-1
 351 448 l 1,2,-1
 310 256 l 1,3,-1
 219 128 l 1,4,-1
 141 64 l 1,5,-1
 77 64 l 1,6,-1
 155 128 l 1,7,-1
 246 256 l 1,8,-1
 287 448 l 1,9,-1
 250 576 l 1,10,-1
 200 640 l 1,11,-1
 264 640 l 1,0,-1
EndSplineSet
EndChar

StartChar: asterisk
Encoding: 42 42 10
Width: 384
Flags: W
LayerCount: 2
Fore
SplineSet
88 416 m 25,0,-1
 417 608 l 25,1,-1
 449 608 l 25,2,-1
 435 544 l 25,3,-1
 106 352 l 25,4,-1
 74 352 l 25,5,-1
 88 416 l 25,0,-1
129 608 m 25,6,-1
 161 608 l 25,7,-1
 408 416 l 25,8,-1
 394 352 l 25,9,-1
 362 352 l 25,10,-1
 115 544 l 25,11,-1
 129 608 l 25,6,-1
264 640 m 25,12,-1
 328 640 l 25,13,-1
 260 320 l 25,14,-1
 196 320 l 25,15,-1
 264 640 l 25,12,-1
EndSplineSet
EndChar

StartChar: plus
Encoding: 43 43 11
Width: 384
Flags: W
LayerCount: 2
Fore
SplineSet
236 512 m 25,0,-1
 300 512 l 25,1,-1
 273 384 l 25,2,-1
 401 384 l 25,3,-1
 388 320 l 25,4,-1
 260 320 l 25,5,-1
 232 192 l 25,6,-1
 168 192 l 25,7,-1
 196 320 l 25,8,-1
 68 320 l 25,9,-1
 81 384 l 25,10,-1
 209 384 l 25,11,-1
 236 512 l 25,0,-1
EndSplineSet
EndChar

StartChar: comma
Encoding: 44 44 12
Width: 384
Flags: W
LayerCount: 2
Fore
SplineSet
155 128 m 25,0,-1
 219 128 l 25,1,-1
 205 64 l 25,2,-1
 114 -64 l 25,3,-1
 50 -64 l 25,4,-1
 141 64 l 25,5,-1
 155 128 l 25,0,-1
EndSplineSet
EndChar

StartChar: hyphen
Encoding: 45 45 13
Width: 384
Flags: W
LayerCount: 2
Fore
SplineSet
81 384 m 29,0,-1
 401 384 l 29,1,-1
 388 320 l 29,2,-1
 68 320 l 29,3,-1
 81 384 l 29,0,-1
EndSplineSet
EndChar

StartChar: period
Encoding: 46 46 14
Width: 384
Flags: W
LayerCount: 2
Fore
SplineSet
155 128 m 25,0,-1
 219 128 l 25,1,-1
 205 64 l 25,2,-1
 141 64 l 25,3,-1
 155 128 l 25,0,-1
EndSplineSet
EndChar

StartChar: slash
Encoding: 47 47 15
Width: 384
Flags: W
LayerCount: 2
Fore
SplineSet
392 640 m 25,0,-1
 456 640 l 25,1,-1
 77 64 l 25,2,-1
 13 64 l 25,3,-1
 392 640 l 25,0,-1
EndSplineSet
EndChar

StartChar: zero
Encoding: 48 48 16
Width: 384
Flags: W
LayerCount: 2
Fore
SplineSet
209 384 m 25,0,-1
 273 384 l 25,1,-1
 260 320 l 25,2,-1
 196 320 l 25,3,-1
 209 384 l 25,0,-1
346 576 m 25,4,-1
 218 576 l 25,5,-1
 179 544 l 25,6,-1
 98 160 l 25,7,-1
 123 128 l 25,8,-1
 251 128 l 25,9,-1
 290 160 l 25,10,-1
 371 544 l 25,11,-1
 346 576 l 25,4,-1
200 640 m 25,12,-1
 392 640 l 25,13,-1
 442 576 l 25,14,-1
 347 128 l 25,15,-1
 269 64 l 25,16,-1
 77 64 l 25,17,-1
 27 128 l 25,18,-1
 122 576 l 25,19,-1
 200 640 l 25,12,-1
EndSplineSet
EndChar

StartChar: one
Encoding: 49 49 17
Width: 384
Flags: W
LayerCount: 2
Fore
SplineSet
264 640 m 25,0,-1
 328 640 l 25,1,-1
 205 64 l 25,2,-1
 141 64 l 25,3,-1
 243 544 l 1,4,-1
 166 480 l 25,5,-1
 102 480 l 25,6,-1
 108 512 l 25,7,-1
 264 640 l 25,0,-1
EndSplineSet
EndChar

StartChar: two
Encoding: 50 50 18
Width: 384
Flags: W
LayerCount: 2
Fore
SplineSet
200 640 m 25,0,-1
 392 640 l 25,1,-1
 442 576 l 25,2,-1
 401 384 l 25,3,-1
 91 128 l 25,4,-1
 347 128 l 25,5,-1
 333 64 l 25,6,-1
 13 64 l 25,7,-1
 34 160 l 25,8,-1
 344 416 l 25,9,-1
 371 544 l 25,10,-1
 346 576 l 25,11,-1
 218 576 l 25,12,-1
 179 544 l 25,13,-1
 159 448 l 25,14,-1
 95 448 l 25,15,-1
 122 576 l 25,16,-1
 200 640 l 25,0,-1
EndSplineSet
EndChar

StartChar: three
Encoding: 51 51 19
Width: 384
Flags: W
LayerCount: 2
Fore
SplineSet
200 640 m 25,0,-1
 392 640 l 25,1,-1
 442 576 l 25,2,-1
 401 384 l 25,3,-1
 362 352 l 25,4,-1
 388 320 l 25,5,-1
 347 128 l 25,6,-1
 269 64 l 25,7,-1
 77 64 l 25,8,-1
 27 128 l 25,9,-1
 54 256 l 25,10,-1
 118 256 l 25,11,-1
 98 160 l 25,12,-1
 123 128 l 25,13,-1
 251 128 l 25,14,-1
 290 160 l 25,15,-1
 317 288 l 25,16,-1
 292 320 l 25,17,-1
 196 320 l 25,18,-1
 209 384 l 25,19,-1
 305 384 l 25,20,-1
 344 416 l 25,21,-1
 371 544 l 25,22,-1
 346 576 l 25,23,-1
 218 576 l 25,24,-1
 179 544 l 25,25,-1
 159 448 l 25,26,-1
 95 448 l 25,27,-1
 122 576 l 25,28,-1
 200 640 l 25,0,-1
EndSplineSet
EndChar

StartChar: four
Encoding: 52 52 20
Width: 384
Flags: W
LayerCount: 2
Fore
SplineSet
300 512 m 25,0,-1
 118 256 l 25,1,-1
 246 256 l 25,2,-1
 300 512 l 25,0,-1
328 640 m 1,3,-1
 392 640 l 25,4,-1
 310 256 l 25,5,-1
 374 256 l 25,6,-1
 360 192 l 25,7,-1
 296 192 l 25,8,-1
 269 64 l 25,9,-1
 205 64 l 25,10,-1
 232 192 l 25,11,-1
 40 192 l 1,12,-1
 54 256 l 25,13,-1
 328 640 l 1,3,-1
EndSplineSet
EndChar

StartChar: five
Encoding: 53 53 21
Width: 384
Flags: W
LayerCount: 2
Fore
SplineSet
136 640 m 25,0,-1
 456 640 l 25,1,-1
 442 576 l 25,2,-1
 186 576 l 25,3,-1
 145 384 l 25,4,-1
 337 384 l 25,5,-1
 388 320 l 25,6,-1
 347 128 l 25,7,-1
 269 64 l 25,8,-1
 77 64 l 25,9,-1
 27 128 l 25,10,-1
 54 256 l 25,11,-1
 118 256 l 25,12,-1
 98 160 l 25,13,-1
 123 128 l 25,14,-1
 251 128 l 25,15,-1
 290 160 l 25,16,-1
 317 288 l 25,17,-1
 292 320 l 25,18,-1
 68 320 l 25,19,-1
 136 640 l 25,0,-1
EndSplineSet
EndChar

StartChar: six
Encoding: 54 54 22
Width: 384
Flags: W
LayerCount: 2
Fore
SplineSet
292 320 m 25,0,-1
 164 320 l 25,1,-1
 125 288 l 25,2,-1
 98 160 l 25,3,-1
 123 128 l 25,4,-1
 251 128 l 25,5,-1
 290 160 l 25,6,-1
 317 288 l 25,7,-1
 292 320 l 25,0,-1
200 640 m 25,8,-1
 392 640 l 25,9,-1
 442 576 l 25,10,-1
 415 448 l 25,11,-1
 351 448 l 25,12,-1
 371 544 l 25,13,-1
 346 576 l 25,14,-1
 218 576 l 25,15,-1
 179 544 l 25,16,-1
 138 352 l 25,17,-1
 177 384 l 25,18,-1
 337 384 l 25,19,-1
 388 320 l 25,20,-1
 347 128 l 25,21,-1
 269 64 l 25,22,-1
 77 64 l 25,23,-1
 27 128 l 25,24,-1
 122 576 l 25,25,-1
 200 640 l 25,8,-1
EndSplineSet
EndChar

StartChar: seven
Encoding: 55 55 23
Width: 384
Flags: W
LayerCount: 2
Fore
SplineSet
136 640 m 25,0,-1
 456 640 l 25,1,-1
 442 576 l 25,2,-1
 77 64 l 25,3,-1
 13 64 l 25,4,-1
 378 576 l 25,5,-1
 122 576 l 25,6,-1
 136 640 l 25,0,-1
EndSplineSet
EndChar

StartChar: eight
Encoding: 56 56 24
Width: 384
Flags: W
LayerCount: 2
Fore
SplineSet
292 320 m 25,0,-1
 164 320 l 25,1,-1
 125 288 l 25,2,-1
 98 160 l 25,3,-1
 123 128 l 25,4,-1
 251 128 l 25,5,-1
 290 160 l 25,6,-1
 317 288 l 25,7,-1
 292 320 l 25,0,-1
346 576 m 25,8,-1
 218 576 l 25,9,-1
 179 544 l 25,10,-1
 152 416 l 25,11,-1
 177 384 l 25,12,-1
 305 384 l 25,13,-1
 344 416 l 25,14,-1
 371 544 l 25,15,-1
 346 576 l 25,8,-1
200 640 m 25,16,-1
 392 640 l 25,17,-1
 442 576 l 25,18,-1
 401 384 l 25,19,-1
 362 352 l 25,20,-1
 388 320 l 25,21,-1
 347 128 l 25,22,-1
 269 64 l 25,23,-1
 77 64 l 25,24,-1
 27 128 l 25,25,-1
 68 320 l 25,26,-1
 106 352 l 25,27,-1
 81 384 l 25,28,-1
 122 576 l 25,29,-1
 200 640 l 25,16,-1
EndSplineSet
EndChar

StartChar: nine
Encoding: 57 57 25
Width: 384
Flags: W
LayerCount: 2
Fore
SplineSet
177 384 m 25,0,-1
 305 384 l 25,1,-1
 344 416 l 25,2,-1
 371 544 l 25,3,-1
 346 576 l 25,4,-1
 218 576 l 25,5,-1
 179 544 l 25,6,-1
 152 416 l 25,7,-1
 177 384 l 25,0,-1
269 64 m 25,8,-1
 77 64 l 25,9,-1
 27 128 l 25,10,-1
 54 256 l 25,11,-1
 118 256 l 25,12,-1
 98 160 l 25,13,-1
 123 128 l 25,14,-1
 251 128 l 25,15,-1
 290 160 l 25,16,-1
 330 352 l 25,17,-1
 292 320 l 25,18,-1
 132 320 l 25,19,-1
 81 384 l 25,20,-1
 122 576 l 25,21,-1
 200 640 l 25,22,-1
 392 640 l 25,23,-1
 442 576 l 25,24,-1
 347 128 l 25,25,-1
 269 64 l 25,8,-1
EndSplineSet
EndChar

StartChar: colon
Encoding: 58 58 26
Width: 384
Flags: W
LayerCount: 2
Fore
SplineSet
209 384 m 25,0,-1
 273 384 l 25,1,-1
 260 320 l 25,2,-1
 196 320 l 25,3,-1
 209 384 l 25,0,-1
155 128 m 25,4,-1
 219 128 l 25,5,-1
 205 64 l 25,6,-1
 141 64 l 25,7,-1
 155 128 l 25,4,-1
EndSplineSet
EndChar

StartChar: semicolon
Encoding: 59 59 27
Width: 384
Flags: W
LayerCount: 2
Fore
SplineSet
209 384 m 25,0,-1
 273 384 l 25,1,-1
 260 320 l 25,2,-1
 196 320 l 25,3,-1
 209 384 l 25,0,-1
155 128 m 25,4,-1
 219 128 l 25,5,-1
 205 64 l 25,6,-1
 114 -64 l 25,7,-1
 50 -64 l 25,8,-1
 141 64 l 25,9,-1
 155 128 l 25,4,-1
EndSplineSet
EndChar

StartChar: less
Encoding: 60 60 28
Width: 384
Flags: W
LayerCount: 2
Fore
SplineSet
428 512 m 25,0,-1
 415 448 l 25,1,-1
 68 320 l 25,2,-1
 81 384 l 25,3,-1
 428 512 l 25,0,-1
81 384 m 1,4,-1
 374 256 l 25,5,-1
 360 192 l 1,6,-1
 68 320 l 25,7,-1
 81 384 l 1,4,-1
EndSplineSet
EndChar

StartChar: equal
Encoding: 61 61 29
Width: 384
Flags: W
LayerCount: 2
Fore
SplineSet
95 448 m 25,0,-1
 415 448 l 25,1,-1
 401 384 l 25,2,-1
 81 384 l 25,3,-1
 95 448 l 25,0,-1
68 320 m 25,4,-1
 388 320 l 25,5,-1
 374 256 l 25,6,-1
 54 256 l 25,7,-1
 68 320 l 25,4,-1
EndSplineSet
EndChar

StartChar: greater
Encoding: 62 62 30
Width: 384
Flags: W
LayerCount: 2
Fore
SplineSet
108 512 m 25,0,-1
 401 384 l 25,1,-1
 388 320 l 25,2,-1
 95 448 l 25,3,-1
 108 512 l 25,0,-1
401 384 m 25,4,-1
 388 320 l 25,5,-1
 40 192 l 25,6,-1
 54 256 l 25,7,-1
 401 384 l 25,4,-1
EndSplineSet
EndChar

StartChar: question
Encoding: 63 63 31
Width: 384
Flags: W
LayerCount: 2
Fore
SplineSet
155 128 m 25,0,-1
 219 128 l 25,1,-1
 205 64 l 25,2,-1
 141 64 l 25,3,-1
 155 128 l 25,0,-1
200 640 m 25,4,-1
 392 640 l 25,5,-1
 442 576 l 25,6,-1
 401 384 l 25,7,-1
 246 256 l 25,8,-1
 232 192 l 25,9,-1
 168 192 l 25,10,-1
 189 288 l 25,11,-1
 344 416 l 25,12,-1
 371 544 l 25,13,-1
 346 576 l 25,14,-1
 218 576 l 25,15,-1
 179 544 l 25,16,-1
 159 448 l 25,17,-1
 95 448 l 25,18,-1
 122 576 l 25,19,-1
 200 640 l 25,4,-1
EndSplineSet
EndChar

StartChar: at
Encoding: 64 64 32
Width: 384
Flags: W
LayerCount: 2
Fore
SplineSet
234 352 m 25,0,-1
 202 352 l 25,1,-1
 175 224 l 25,2,-1
 207 224 l 25,3,-1
 234 352 l 25,0,-1
266 352 m 17,4,-1
 273 384 l 1,5,-1
 305 384 l 1,6,-1
 271 224 l 1,7,-1
 310 256 l 1,8,-1
 371 544 l 1,9,-1
 346 576 l 25,10,-1
 218 576 l 25,11,-1
 179 544 l 25,12,-1
 98 160 l 25,13,-1
 123 128 l 25,14,-1
 347 128 l 25,15,-1
 269 64 l 25,16,-1
 77 64 l 25,17,-1
 27 128 l 25,18,-1
 122 576 l 25,19,-1
 200 640 l 25,20,-1
 392 640 l 25,21,-1
 442 576 l 25,22,-1
 374 256 l 25,23,-1
 296 192 l 1,24,-1
 232 192 l 1,25,-1
 239 224 l 1,26,-1
 200 192 l 9,27,-1
 168 192 l 1,28,-1
 143 224 l 25,29,-1
 170 352 l 25,30,-1
 209 384 l 25,31,-1
 241 384 l 25,32,-1
 266 352 l 17,4,-1
EndSplineSet
EndChar

StartChar: A
Encoding: 65 65 33
Width: 384
Flags: W
LayerCount: 2
Fore
SplineSet
177 384 m 25,0,-1
 305 384 l 25,1,-1
 292 320 l 25,2,-1
 164 320 l 25,3,-1
 177 384 l 25,0,-1
264 640 m 25,4,-1
 328 640 l 25,5,-1
 77 64 l 25,6,-1
 13 64 l 25,7,-1
 264 640 l 25,4,-1
264 640 m 25,8,-1
 328 640 l 25,9,-1
 333 64 l 25,10,-1
 269 64 l 25,11,-1
 264 640 l 25,8,-1
EndSplineSet
EndChar

StartChar: B
Encoding: 66 66 34
Width: 384
Flags: W
LayerCount: 2
Fore
SplineSet
292 320 m 25,0,-1
 132 320 l 25,1,-1
 91 128 l 25,2,-1
 251 128 l 25,3,-1
 290 160 l 25,4,-1
 317 288 l 25,5,-1
 292 320 l 25,0,-1
346 576 m 25,6,-1
 186 576 l 25,7,-1
 145 384 l 25,8,-1
 305 384 l 25,9,-1
 344 416 l 25,10,-1
 371 544 l 25,11,-1
 346 576 l 25,6,-1
136 640 m 25,12,-1
 392 640 l 25,13,-1
 442 576 l 25,14,-1
 401 384 l 25,15,-1
 362 352 l 25,16,-1
 388 320 l 25,17,-1
 347 128 l 25,18,-1
 269 64 l 25,19,-1
 13 64 l 25,20,-1
 136 640 l 25,12,-1
EndSplineSet
EndChar

StartChar: C
Encoding: 67 67 35
Width: 384
Flags: W
LayerCount: 2
Fore
SplineSet
392 640 m 25,0,-1
 442 576 l 25,1,-1
 415 448 l 25,2,-1
 351 448 l 25,3,-1
 371 544 l 25,4,-1
 346 576 l 25,5,-1
 218 576 l 25,6,-1
 179 544 l 25,7,-1
 98 160 l 25,8,-1
 123 128 l 25,9,-1
 251 128 l 25,10,-1
 290 160 l 25,11,-1
 310 256 l 25,12,-1
 374 256 l 25,13,-1
 347 128 l 25,14,-1
 269 64 l 25,15,-1
 77 64 l 25,16,-1
 27 128 l 25,17,-1
 122 576 l 25,18,-1
 200 640 l 25,19,-1
 392 640 l 25,0,-1
EndSplineSet
EndChar

StartChar: D
Encoding: 68 68 36
Width: 384
Flags: W
LayerCount: 2
Fore
SplineSet
371 544 m 25,0,-1
 346 576 l 25,1,-1
 186 576 l 25,2,-1
 91 128 l 25,3,-1
 251 128 l 25,4,-1
 290 160 l 25,5,-1
 371 544 l 25,0,-1
347 128 m 25,6,-1
 269 64 l 25,7,-1
 13 64 l 25,8,-1
 136 640 l 25,9,-1
 392 640 l 25,10,-1
 442 576 l 25,11,-1
 347 128 l 25,6,-1
EndSplineSet
EndChar

StartChar: E
Encoding: 69 69 37
Width: 384
Flags: W
LayerCount: 2
Fore
SplineSet
186 576 m 1,0,-1
 145 384 l 1,1,-1
 401 384 l 25,2,-1
 388 320 l 25,3,-1
 132 320 l 1,4,-1
 91 128 l 1,5,-1
 347 128 l 25,6,-1
 333 64 l 25,7,-1
 13 64 l 1,8,-1
 136 640 l 1,9,-1
 456 640 l 25,10,-1
 442 576 l 25,11,-1
 186 576 l 1,0,-1
EndSplineSet
EndChar

StartChar: F
Encoding: 70 70 38
Width: 384
Flags: W
LayerCount: 2
Fore
SplineSet
13 64 m 17,0,-1
 136 640 l 1,1,-1
 456 640 l 25,2,-1
 442 576 l 25,3,-1
 186 576 l 1,4,-1
 145 384 l 1,5,-1
 401 384 l 25,6,-1
 388 320 l 25,7,-1
 132 320 l 1,8,-1
 77 64 l 9,9,-1
 13 64 l 17,0,-1
EndSplineSet
EndChar

StartChar: G
Encoding: 71 71 39
Width: 384
Flags: W
LayerCount: 2
Fore
SplineSet
290 160 m 1,0,-1
 251 128 l 25,1,-1
 123 128 l 25,2,-1
 98 160 l 25,3,-1
 179 544 l 25,4,-1
 218 576 l 25,5,-1
 346 576 l 25,6,-1
 371 544 l 25,7,-1
 351 448 l 25,8,-1
 415 448 l 25,9,-1
 442 576 l 25,10,-1
 392 640 l 25,11,-1
 200 640 l 25,12,-1
 122 576 l 25,13,-1
 27 128 l 25,14,-1
 77 64 l 25,15,-1
 269 64 l 25,16,-1
 347 128 l 1,17,-1
 401 384 l 1,18,-1
 209 384 l 1,19,-1
 196 320 l 1,20,-1
 324 320 l 1,21,-1
 290 160 l 1,0,-1
EndSplineSet
EndChar

StartChar: H
Encoding: 72 72 40
Width: 384
Flags: W
LayerCount: 2
Fore
SplineSet
136 640 m 25,0,-1
 200 640 l 25,1,-1
 145 384 l 25,2,-1
 337 384 l 25,3,-1
 392 640 l 25,4,-1
 456 640 l 25,5,-1
 333 64 l 25,6,-1
 269 64 l 25,7,-1
 324 320 l 25,8,-1
 132 320 l 25,9,-1
 77 64 l 25,10,-1
 13 64 l 25,11,-1
 136 640 l 25,0,-1
EndSplineSet
EndChar

StartChar: I
Encoding: 73 73 41
Width: 384
Flags: W
LayerCount: 2
Fore
SplineSet
250 576 m 25,0,-1
 314 576 l 25,1,-1
 205 64 l 25,2,-1
 141 64 l 25,3,-1
 250 576 l 25,0,-1
EndSplineSet
EndChar

StartChar: J
Encoding: 74 74 42
Width: 384
Flags: W
LayerCount: 2
Fore
SplineSet
392 640 m 25,0,-1
 456 640 l 25,1,-1
 347 128 l 25,2,-1
 269 64 l 25,3,-1
 77 64 l 25,4,-1
 27 128 l 25,5,-1
 54 256 l 25,6,-1
 118 256 l 25,7,-1
 98 160 l 25,8,-1
 123 128 l 25,9,-1
 251 128 l 25,10,-1
 290 160 l 25,11,-1
 392 640 l 25,0,-1
EndSplineSet
EndChar

StartChar: K
Encoding: 75 75 43
Width: 384
Flags: W
LayerCount: 2
Fore
SplineSet
136 640 m 25,0,-1
 200 640 l 25,1,-1
 159 448 l 25,2,-1
 392 640 l 25,3,-1
 456 640 l 25,4,-1
 449 608 l 25,5,-1
 138 352 l 25,6,-1
 340 96 l 25,7,-1
 333 64 l 25,8,-1
 269 64 l 25,9,-1
 118 256 l 25,10,-1
 77 64 l 25,11,-1
 13 64 l 25,12,-1
 136 640 l 25,0,-1
EndSplineSet
EndChar

StartChar: L
Encoding: 76 76 44
Width: 384
Flags: W
LayerCount: 2
Fore
SplineSet
136 640 m 25,0,-1
 200 640 l 25,1,-1
 91 128 l 25,2,-1
 347 128 l 25,3,-1
 333 64 l 25,4,-1
 13 64 l 25,5,-1
 136 640 l 25,0,-1
EndSplineSet
EndChar

StartChar: M
Encoding: 77 77 45
Width: 384
Flags: W
LayerCount: 2
Fore
SplineSet
392 640 m 29,0,-1
 456 640 l 25,1,-1
 205 64 l 25,2,-1
 141 64 l 25,3,-1
 392 640 l 29,0,-1
136 640 m 25,4,-1
 200 640 l 25,5,-1
 205 64 l 25,6,-1
 141 64 l 25,7,-1
 136 640 l 25,4,-1
392 640 m 25,8,-1
 456 640 l 25,9,-1
 333 64 l 25,10,-1
 269 64 l 25,11,-1
 392 640 l 25,8,-1
136 640 m 25,12,-1
 200 640 l 25,13,-1
 77 64 l 25,14,-1
 13 64 l 25,15,-1
 136 640 l 25,12,-1
EndSplineSet
EndChar

StartChar: N
Encoding: 78 78 46
Width: 384
Flags: W
LayerCount: 2
Fore
SplineSet
136 640 m 25,0,-1
 200 640 l 25,1,-1
 333 64 l 25,2,-1
 269 64 l 25,3,-1
 136 640 l 25,0,-1
392 640 m 25,4,-1
 456 640 l 25,5,-1
 333 64 l 25,6,-1
 269 64 l 25,7,-1
 392 640 l 25,4,-1
136 640 m 25,8,-1
 200 640 l 25,9,-1
 77 64 l 25,10,-1
 13 64 l 25,11,-1
 136 640 l 25,8,-1
EndSplineSet
EndChar

StartChar: O
Encoding: 79 79 47
Width: 384
Flags: W
LayerCount: 2
Fore
SplineSet
346 576 m 25,0,-1
 218 576 l 25,1,-1
 179 544 l 25,2,-1
 98 160 l 25,3,-1
 123 128 l 25,4,-1
 251 128 l 25,5,-1
 290 160 l 25,6,-1
 371 544 l 25,7,-1
 346 576 l 25,0,-1
200 640 m 25,8,-1
 392 640 l 25,9,-1
 442 576 l 25,10,-1
 347 128 l 25,11,-1
 269 64 l 25,12,-1
 77 64 l 25,13,-1
 27 128 l 25,14,-1
 122 576 l 25,15,-1
 200 640 l 25,8,-1
EndSplineSet
EndChar

StartChar: P
Encoding: 80 80 48
Width: 384
Flags: W
LayerCount: 2
Fore
SplineSet
346 576 m 25,0,-1
 186 576 l 25,1,-1
 145 384 l 25,2,-1
 305 384 l 25,3,-1
 344 416 l 25,4,-1
 371 544 l 25,5,-1
 346 576 l 25,0,-1
136 640 m 25,6,-1
 392 640 l 25,7,-1
 442 576 l 25,8,-1
 401 384 l 25,9,-1
 324 320 l 25,10,-1
 132 320 l 25,11,-1
 77 64 l 25,12,-1
 13 64 l 25,13,-1
 136 640 l 25,6,-1
EndSplineSet
EndChar

StartChar: Q
Encoding: 81 81 49
Width: 384
Flags: W
LayerCount: 2
Fore
SplineSet
200 192 m 25,0,-1
 264 192 l 25,1,-1
 390 32 l 25,2,-1
 384 0 l 25,3,-1
 320 0 l 25,4,-1
 194 160 l 25,5,-1
 200 192 l 25,0,-1
346 576 m 25,6,-1
 218 576 l 25,7,-1
 179 544 l 25,8,-1
 98 160 l 25,9,-1
 123 128 l 25,10,-1
 251 128 l 25,11,-1
 290 160 l 25,12,-1
 371 544 l 25,13,-1
 346 576 l 25,6,-1
200 640 m 25,14,-1
 392 640 l 25,15,-1
 442 576 l 25,16,-1
 347 128 l 25,17,-1
 269 64 l 25,18,-1
 77 64 l 25,19,-1
 27 128 l 25,20,-1
 122 576 l 25,21,-1
 200 640 l 25,14,-1
EndSplineSet
EndChar

StartChar: R
Encoding: 82 82 50
Width: 384
Flags: W
LayerCount: 2
Fore
SplineSet
346 576 m 25,0,-1
 186 576 l 25,1,-1
 145 384 l 25,2,-1
 305 384 l 25,3,-1
 344 416 l 25,4,-1
 371 544 l 25,5,-1
 346 576 l 25,0,-1
13 64 m 25,6,-1
 136 640 l 25,7,-1
 392 640 l 25,8,-1
 442 576 l 25,9,-1
 401 384 l 25,10,-1
 324 320 l 25,11,-1
 164 320 l 29,12,-1
 340 96 l 25,13,-1
 333 64 l 25,14,-1
 269 64 l 25,15,-1
 118 256 l 25,16,-1
 77 64 l 25,17,-1
 13 64 l 25,6,-1
EndSplineSet
EndChar

StartChar: S
Encoding: 83 83 51
Width: 384
Flags: W
LayerCount: 2
Fore
SplineSet
392 640 m 25,0,-1
 442 576 l 25,1,-1
 415 448 l 25,2,-1
 351 448 l 25,3,-1
 371 544 l 25,4,-1
 346 576 l 25,5,-1
 218 576 l 25,6,-1
 179 544 l 25,7,-1
 152 416 l 25,8,-1
 177 384 l 25,9,-1
 337 384 l 25,10,-1
 388 320 l 25,11,-1
 347 128 l 25,12,-1
 269 64 l 25,13,-1
 77 64 l 25,14,-1
 27 128 l 25,15,-1
 54 256 l 25,16,-1
 118 256 l 25,17,-1
 98 160 l 25,18,-1
 123 128 l 25,19,-1
 251 128 l 25,20,-1
 290 160 l 25,21,-1
 317 288 l 25,22,-1
 292 320 l 25,23,-1
 132 320 l 25,24,-1
 81 384 l 25,25,-1
 122 576 l 25,26,-1
 200 640 l 25,27,-1
 392 640 l 25,0,-1
EndSplineSet
EndChar

StartChar: T
Encoding: 84 84 52
Width: 384
Flags: W
LayerCount: 2
Fore
SplineSet
136 640 m 25,0,-1
 456 640 l 25,1,-1
 442 576 l 25,2,-1
 314 576 l 25,3,-1
 205 64 l 25,4,-1
 141 64 l 25,5,-1
 250 576 l 25,6,-1
 122 576 l 25,7,-1
 136 640 l 25,0,-1
EndSplineSet
EndChar

StartChar: U
Encoding: 85 85 53
Width: 384
Flags: W
LayerCount: 2
Fore
SplineSet
77 64 m 17,0,-1
 27 128 l 1,1,-1
 136 640 l 25,2,-1
 200 640 l 25,3,-1
 98 160 l 1,4,-1
 123 128 l 25,5,-1
 251 128 l 25,6,-1
 290 160 l 1,7,-1
 392 640 l 25,8,-1
 456 640 l 25,9,-1
 333 64 l 1,10,-1
 269 64 l 25,11,-1
 275 94 l 25,12,-1
 237 64 l 9,13,-1
 77 64 l 17,0,-1
EndSplineSet
EndChar

StartChar: V
Encoding: 86 86 54
Width: 384
Flags: W
LayerCount: 2
Fore
SplineSet
392 640 m 25,0,-1
 456 640 l 25,1,-1
 205 64 l 25,2,-1
 141 64 l 25,3,-1
 392 640 l 25,0,-1
136 640 m 25,4,-1
 200 640 l 25,5,-1
 205 64 l 25,6,-1
 141 64 l 25,7,-1
 136 640 l 25,4,-1
EndSplineSet
EndChar

StartChar: W
Encoding: 87 87 55
Width: 384
Flags: W
LayerCount: 2
Fore
SplineSet
264 640 m 25,0,-1
 328 640 l 25,1,-1
 333 64 l 25,2,-1
 269 64 l 25,3,-1
 264 640 l 25,0,-1
264 640 m 25,4,-1
 328 640 l 25,5,-1
 77 64 l 25,6,-1
 13 64 l 25,7,-1
 264 640 l 25,4,-1
392 640 m 25,8,-1
 456 640 l 25,9,-1
 333 64 l 25,10,-1
 269 64 l 25,11,-1
 392 640 l 25,8,-1
136 640 m 25,12,-1
 200 640 l 25,13,-1
 77 64 l 25,14,-1
 13 64 l 25,15,-1
 136 640 l 25,12,-1
EndSplineSet
EndChar

StartChar: X
Encoding: 88 88 56
Width: 384
Flags: W
LayerCount: 2
Fore
SplineSet
392 640 m 25,0,-1
 456 640 l 25,1,-1
 77 64 l 25,2,-1
 13 64 l 25,3,-1
 392 640 l 25,0,-1
136 640 m 25,4,-1
 200 640 l 25,5,-1
 333 64 l 25,6,-1
 269 64 l 25,7,-1
 136 640 l 25,4,-1
EndSplineSet
EndChar

StartChar: Y
Encoding: 89 89 57
Width: 384
Flags: W
LayerCount: 2
Fore
SplineSet
13 64 m 1,0,-1
 77 64 l 1,1,-1
 456 640 l 1,2,-1
 392 640 l 1,3,-1
 13 64 l 1,0,-1
247 384 m 17,4,-1
 200 640 l 9,5,-1
 136 640 l 25,6,-1
 196 320 l 25,7,-1
 247 384 l 17,4,-1
EndSplineSet
EndChar

StartChar: Z
Encoding: 90 90 58
Width: 384
Flags: W
LayerCount: 2
Fore
SplineSet
136 640 m 25,0,-1
 456 640 l 25,1,-1
 442 576 l 25,2,-1
 91 128 l 25,3,-1
 347 128 l 25,4,-1
 333 64 l 25,5,-1
 13 64 l 25,6,-1
 27 128 l 25,7,-1
 378 576 l 25,8,-1
 122 576 l 25,9,-1
 136 640 l 25,0,-1
EndSplineSet
EndChar

StartChar: bracketleft
Encoding: 91 91 59
Width: 384
Flags: W
LayerCount: 2
Fore
SplineSet
200 640 m 1,0,-1
 392 640 l 25,1,-1
 378 576 l 25,2,-1
 250 576 l 1,3,-1
 155 128 l 25,4,-1
 283 128 l 25,5,-1
 269 64 l 25,6,-1
 77 64 l 25,7,-1
 200 640 l 1,0,-1
EndSplineSet
EndChar

StartChar: backslash
Encoding: 92 92 60
Width: 384
Flags: W
LayerCount: 2
Fore
SplineSet
136 640 m 25,0,-1
 200 640 l 25,1,-1
 333 64 l 25,2,-1
 269 64 l 25,3,-1
 136 640 l 25,0,-1
EndSplineSet
EndChar

StartChar: bracketright
Encoding: 93 93 61
Width: 384
Flags: W
LayerCount: 2
Fore
SplineSet
200 640 m 25,0,-1
 392 640 l 1,1,-1
 269 64 l 25,2,-1
 77 64 l 25,3,-1
 91 128 l 25,4,-1
 219 128 l 25,5,-1
 314 576 l 1,6,-1
 186 576 l 25,7,-1
 200 640 l 25,0,-1
EndSplineSet
EndChar

StartChar: asciicircum
Encoding: 94 94 62
Width: 384
Flags: W
LayerCount: 2
Fore
SplineSet
264 640 m 25,0,-1
 328 640 l 25,1,-1
 388 320 l 25,2,-1
 324 320 l 25,3,-1
 264 640 l 25,0,-1
264 640 m 25,4,-1
 328 640 l 25,5,-1
 132 320 l 25,6,-1
 68 320 l 25,7,-1
 264 640 l 25,4,-1
EndSplineSet
EndChar

StartChar: underscore
Encoding: 95 95 63
Width: 384
Flags: W
LayerCount: 2
Fore
SplineSet
0 0 m 1,0,-1
 384 0 l 25,1,-1
 370 -64 l 25,2,-1
 -14 -64 l 1,3,-1
 0 0 l 1,0,-1
EndSplineSet
EndChar

StartChar: grave
Encoding: 96 96 64
Width: 384
Flags: W
LayerCount: 2
Fore
SplineSet
213 704 m 25,0,-1
 277 704 l 25,1,-1
 371 544 l 25,2,-1
 364 512 l 25,3,-1
 300 512 l 25,4,-1
 206 672 l 25,5,-1
 213 704 l 25,0,-1
EndSplineSet
EndChar

StartChar: a
Encoding: 97 97 65
Width: 384
Flags: W
LayerCount: 2
Fore
SplineSet
292 320 m 25,0,-1
 164 320 l 25,1,-1
 125 288 l 25,2,-1
 98 160 l 1,3,-1
 123 128 l 25,4,-1
 251 128 l 25,5,-1
 290 160 l 1,6,-1
 317 288 l 25,7,-1
 292 320 l 25,0,-1
145 384 m 1,8,-1
 305 384 l 1,9,-1
 330 352 l 1,10,-1
 337 384 l 1,11,-1
 401 384 l 1,12,-1
 333 64 l 1,13,-1
 269 64 l 1,14,-1
 276 96 l 1,15,-1
 237 64 l 1,16,-1
 77 64 l 1,17,-1
 27 128 l 1,18,-1
 68 320 l 25,19,-1
 145 384 l 1,8,-1
EndSplineSet
EndChar

StartChar: b
Encoding: 98 98 66
Width: 384
Flags: W
LayerCount: 2
Fore
SplineSet
292 320 m 25,0,-1
 164 320 l 25,1,-1
 125 288 l 25,2,-1
 98 160 l 25,3,-1
 123 128 l 25,4,-1
 251 128 l 25,5,-1
 290 160 l 25,6,-1
 317 288 l 25,7,-1
 292 320 l 25,0,-1
136 640 m 25,8,-1
 200 640 l 25,9,-1
 138 352 l 25,10,-1
 177 384 l 25,11,-1
 337 384 l 25,12,-1
 388 320 l 25,13,-1
 347 128 l 25,14,-1
 269 64 l 25,15,-1
 109 64 l 25,16,-1
 84 96 l 25,17,-1
 77 64 l 25,18,-1
 13 64 l 25,19,-1
 136 640 l 25,8,-1
EndSplineSet
EndChar

StartChar: c
Encoding: 99 99 67
Width: 384
Flags: W
LayerCount: 2
Fore
SplineSet
337 384 m 25,0,-1
 388 320 l 1,1,-1
 374 256 l 25,2,-1
 310 256 l 25,3,-1
 317 288 l 1,4,-1
 292 320 l 25,5,-1
 164 320 l 25,6,-1
 125 288 l 25,7,-1
 98 160 l 1,8,-1
 123 128 l 25,9,-1
 251 128 l 25,10,-1
 290 160 l 1,11,-1
 296 192 l 25,12,-1
 360 192 l 25,13,-1
 347 128 l 1,14,-1
 269 64 l 25,15,-1
 77 64 l 25,16,-1
 27 128 l 1,17,-1
 68 320 l 25,18,-1
 145 384 l 25,19,-1
 337 384 l 25,0,-1
EndSplineSet
EndChar

StartChar: d
Encoding: 100 100 68
Width: 384
Flags: W
LayerCount: 2
Fore
SplineSet
164 320 m 25,0,-1
 292 320 l 25,1,-1
 317 288 l 25,2,-1
 290 160 l 25,3,-1
 251 128 l 25,4,-1
 123 128 l 25,5,-1
 98 160 l 25,6,-1
 125 288 l 25,7,-1
 164 320 l 25,0,-1
456 640 m 25,8,-1
 392 640 l 25,9,-1
 330 352 l 25,10,-1
 305 384 l 25,11,-1
 145 384 l 25,12,-1
 68 320 l 25,13,-1
 27 128 l 25,14,-1
 77 64 l 25,15,-1
 237 64 l 25,16,-1
 276 96 l 25,17,-1
 269 64 l 25,18,-1
 333 64 l 25,19,-1
 456 640 l 25,8,-1
EndSplineSet
EndChar

StartChar: e
Encoding: 101 101 69
Width: 384
Flags: W
LayerCount: 2
Fore
SplineSet
125 288 m 1,0,-1
 118 256 l 1,1,-1
 310 256 l 1,2,-1
 317 288 l 1,3,-1
 292 320 l 25,4,-1
 164 320 l 25,5,-1
 125 288 l 1,0,-1
347 128 m 1049,6,-1
123 128 m 25,7,-1
 347 128 l 1,8,-1
 269 64 l 25,9,-1
 77 64 l 25,10,-1
 27 128 l 1,11,-1
 68 320 l 25,12,-1
 145 384 l 25,13,-1
 337 384 l 25,14,-1
 388 320 l 1,15,-1
 360 192 l 25,16,-1
 104 192 l 25,17,-1
 98 160 l 25,18,-1
 123 128 l 25,7,-1
EndSplineSet
EndChar

StartChar: f
Encoding: 102 102 70
Width: 384
Flags: W
LayerCount: 2
Fore
SplineSet
264 640 m 25,0,-1
 392 640 l 25,1,-1
 442 576 l 25,2,-1
 415 448 l 25,3,-1
 351 448 l 25,4,-1
 371 544 l 25,5,-1
 346 576 l 25,6,-1
 282 576 l 25,7,-1
 243 544 l 25,8,-1
 209 384 l 25,9,-1
 273 384 l 25,10,-1
 260 320 l 25,11,-1
 196 320 l 1,12,-1
 87 -192 l 25,13,-1
 23 -192 l 25,14,-1
 132 320 l 1,15,-1
 68 320 l 25,16,-1
 81 384 l 25,17,-1
 145 384 l 25,18,-1
 186 576 l 25,19,-1
 264 640 l 25,0,-1
EndSplineSet
EndChar

StartChar: g
Encoding: 103 103 71
Width: 384
Flags: W
LayerCount: 2
Fore
SplineSet
123 128 m 25,0,-1
 251 128 l 25,1,-1
 290 160 l 25,2,-1
 317 288 l 25,3,-1
 292 320 l 25,4,-1
 164 320 l 25,5,-1
 125 288 l 25,6,-1
 98 160 l 25,7,-1
 123 128 l 25,0,-1
276 96 m 25,8,-1
 237 64 l 25,9,-1
 77 64 l 25,10,-1
 27 128 l 25,11,-1
 68 320 l 25,12,-1
 145 384 l 25,13,-1
 305 384 l 25,14,-1
 330 352 l 25,15,-1
 337 384 l 25,16,-1
 401 384 l 1,17,-1
 292 -128 l 25,18,-1
 215 -192 l 25,19,-1
 23 -192 l 25,20,-1
 -28 -128 l 25,21,-1
 0 0 l 25,22,-1
 64 0 l 25,23,-1
 43 -96 l 25,24,-1
 68 -128 l 25,25,-1
 196 -128 l 25,26,-1
 235 -96 l 25,27,-1
 276 96 l 25,8,-1
EndSplineSet
EndChar

StartChar: h
Encoding: 104 104 72
Width: 384
Flags: W
LayerCount: 2
Fore
SplineSet
13 64 m 25,0,-1
 136 640 l 25,1,-1
 200 640 l 25,2,-1
 138 352 l 25,3,-1
 177 384 l 25,4,-1
 337 384 l 25,5,-1
 388 320 l 1,6,-1
 333 64 l 25,7,-1
 269 64 l 25,8,-1
 317 288 l 1,9,-1
 292 320 l 25,10,-1
 164 320 l 25,11,-1
 125 288 l 1,12,-1
 77 64 l 25,13,-1
 13 64 l 25,0,-1
EndSplineSet
EndChar

StartChar: i
Encoding: 105 105 73
Width: 384
Flags: W
LayerCount: 2
Fore
SplineSet
209 384 m 25,0,-1
 273 384 l 25,1,-1
 205 64 l 25,2,-1
 141 64 l 25,3,-1
 209 384 l 25,0,-1
264 640 m 25,4,-1
 328 640 l 25,5,-1
 314 576 l 25,6,-1
 250 576 l 25,7,-1
 264 640 l 25,4,-1
EndSplineSet
EndChar

StartChar: j
Encoding: 106 106 74
Width: 384
Flags: W
LayerCount: 2
Fore
SplineSet
209 384 m 25,0,-1
 273 384 l 25,1,-1
 164 -128 l 25,2,-1
 87 -192 l 25,3,-1
 23 -192 l 25,4,-1
 -28 -128 l 25,5,-1
 0 0 l 25,6,-1
 64 0 l 25,7,-1
 43 -96 l 25,8,-1
 68 -128 l 25,9,-1
 107 -96 l 25,10,-1
 209 384 l 25,0,-1
264 640 m 25,11,-1
 328 640 l 25,12,-1
 314 576 l 25,13,-1
 250 576 l 25,14,-1
 264 640 l 25,11,-1
EndSplineSet
EndChar

StartChar: k
Encoding: 107 107 75
Width: 384
Flags: W
LayerCount: 2
Fore
SplineSet
13 64 m 25,0,-1
 136 640 l 17,1,-1
 200 640 l 1,2,-1
 125 288 l 1,3,-1
 337 384 l 1,4,-1
 401 384 l 25,5,-1
 394 352 l 9,6,-1
 111 224 l 25,7,-1
 340 96 l 1,8,-1
 333 64 l 25,9,-1
 269 64 l 1,10,-1
 98 160 l 9,11,-1
 77 64 l 25,12,-1
 13 64 l 25,0,-1
EndSplineSet
EndChar

StartChar: l
Encoding: 108 108 76
Width: 384
Flags: W
LayerCount: 2
Fore
SplineSet
264 640 m 25,0,-1
 328 640 l 25,1,-1
 205 64 l 25,2,-1
 141 64 l 25,3,-1
 264 640 l 25,0,-1
EndSplineSet
EndChar

StartChar: m
Encoding: 109 109 77
Width: 384
Flags: W
LayerCount: 2
Fore
SplineSet
81 384 m 25,0,-1
 145 384 l 25,1,-1
 139 354 l 25,2,-1
 177 384 l 1,3,-1
 209 384 l 25,4,-1
 234 352 l 1,5,-1
 273 384 l 25,6,-1
 337 384 l 1,7,-1
 388 320 l 25,8,-1
 333 64 l 25,9,-1
 269 64 l 25,10,-1
 317 288 l 25,11,-1
 292 320 l 25,12,-1
 253 288 l 25,13,-1
 205 64 l 25,14,-1
 141 64 l 25,15,-1
 189 288 l 25,16,-1
 164 320 l 25,17,-1
 125 288 l 25,18,-1
 77 64 l 25,19,-1
 13 64 l 25,20,-1
 81 384 l 25,0,-1
EndSplineSet
EndChar

StartChar: n
Encoding: 110 110 78
Width: 384
Flags: W
LayerCount: 2
Fore
SplineSet
337 384 m 17,0,-1
 388 320 l 25,1,-1
 333 64 l 25,2,-1
 269 64 l 25,3,-1
 317 288 l 25,4,-1
 292 320 l 25,5,-1
 164 320 l 25,6,-1
 125 288 l 25,7,-1
 77 64 l 25,8,-1
 13 64 l 25,9,-1
 81 384 l 25,10,-1
 145 384 l 25,11,-1
 139 354 l 25,12,-1
 177 384 l 9,13,-1
 337 384 l 17,0,-1
EndSplineSet
EndChar

StartChar: o
Encoding: 111 111 79
Width: 384
Flags: W
LayerCount: 2
Fore
SplineSet
292 320 m 25,0,-1
 164 320 l 25,1,-1
 125 288 l 25,2,-1
 98 160 l 1,3,-1
 123 128 l 25,4,-1
 251 128 l 25,5,-1
 290 160 l 1,6,-1
 317 288 l 25,7,-1
 292 320 l 25,0,-1
145 384 m 25,8,-1
 337 384 l 25,9,-1
 388 320 l 25,10,-1
 347 128 l 1,11,-1
 269 64 l 25,12,-1
 77 64 l 25,13,-1
 27 128 l 1,14,-1
 68 320 l 25,15,-1
 145 384 l 25,8,-1
EndSplineSet
EndChar

StartChar: p
Encoding: 112 112 80
Width: 384
Flags: W
LayerCount: 2
Fore
SplineSet
251 128 m 25,0,-1
 123 128 l 25,1,-1
 98 160 l 25,2,-1
 125 288 l 25,3,-1
 164 320 l 25,4,-1
 292 320 l 25,5,-1
 317 288 l 25,6,-1
 290 160 l 25,7,-1
 251 128 l 25,0,-1
-41 -192 m 25,8,-1
 23 -192 l 25,9,-1
 84 96 l 25,10,-1
 109 64 l 25,11,-1
 269 64 l 25,12,-1
 347 128 l 25,13,-1
 388 320 l 25,14,-1
 337 384 l 25,15,-1
 177 384 l 25,16,-1
 138 352 l 25,17,-1
 145 384 l 25,18,-1
 81 384 l 25,19,-1
 -41 -192 l 25,8,-1
EndSplineSet
EndChar

StartChar: q
Encoding: 113 113 81
Width: 384
Flags: W
LayerCount: 2
Fore
SplineSet
123 128 m 25,0,-1
 251 128 l 25,1,-1
 290 160 l 25,2,-1
 317 288 l 25,3,-1
 292 320 l 25,4,-1
 164 320 l 25,5,-1
 125 288 l 25,6,-1
 98 160 l 25,7,-1
 123 128 l 25,0,-1
279 -192 m 25,8,-1
 215 -192 l 25,9,-1
 276 96 l 25,10,-1
 237 64 l 25,11,-1
 77 64 l 25,12,-1
 27 128 l 25,13,-1
 68 320 l 25,14,-1
 145 384 l 25,15,-1
 305 384 l 25,16,-1
 330 352 l 25,17,-1
 337 384 l 25,18,-1
 401 384 l 25,19,-1
 279 -192 l 25,8,-1
EndSplineSet
EndChar

StartChar: r
Encoding: 114 114 82
Width: 384
Flags: W
LayerCount: 2
Fore
SplineSet
388 320 m 25,0,-1
 374 256 l 25,1,-1
 310 256 l 25,2,-1
 317 288 l 25,3,-1
 292 320 l 25,4,-1
 164 320 l 1,5,-1
 125 288 l 25,6,-1
 77 64 l 25,7,-1
 13 64 l 25,8,-1
 81 384 l 25,9,-1
 145 384 l 25,10,-1
 139 354 l 25,11,-1
 177 384 l 9,12,-1
 337 384 l 9,13,-1
 388 320 l 25,0,-1
EndSplineSet
EndChar

StartChar: s
Encoding: 115 115 83
Width: 384
Flags: W
LayerCount: 2
Fore
SplineSet
145 384 m 25,0,-1
 337 384 l 25,1,-1
 388 320 l 25,2,-1
 164 320 l 25,3,-1
 125 288 l 25,4,-1
 150 256 l 25,5,-1
 310 256 l 25,6,-1
 360 192 l 25,7,-1
 347 128 l 25,8,-1
 269 64 l 25,9,-1
 77 64 l 25,10,-1
 27 128 l 25,11,-1
 251 128 l 25,12,-1
 290 160 l 25,13,-1
 264 192 l 25,14,-1
 104 192 l 25,15,-1
 54 256 l 25,16,-1
 68 320 l 25,17,-1
 145 384 l 25,0,-1
EndSplineSet
EndChar

StartChar: t
Encoding: 116 116 84
Width: 384
Flags: W
LayerCount: 2
Fore
SplineSet
200 640 m 25,0,-1
 264 640 l 25,1,-1
 209 384 l 25,2,-1
 273 384 l 25,3,-1
 260 320 l 25,4,-1
 196 320 l 25,5,-1
 162 160 l 25,6,-1
 187 128 l 25,7,-1
 251 128 l 25,8,-1
 290 160 l 25,9,-1
 310 256 l 25,10,-1
 374 256 l 25,11,-1
 347 128 l 25,12,-1
 269 64 l 25,13,-1
 141 64 l 25,14,-1
 91 128 l 25,15,-1
 132 320 l 25,16,-1
 68 320 l 25,17,-1
 81 384 l 25,18,-1
 145 384 l 25,19,-1
 200 640 l 25,0,-1
EndSplineSet
EndChar

StartChar: u
Encoding: 117 117 85
Width: 384
Flags: W
LayerCount: 2
Fore
SplineSet
77 64 m 17,0,-1
 27 128 l 25,1,-1
 81 384 l 25,2,-1
 145 384 l 25,3,-1
 98 160 l 25,4,-1
 123 128 l 25,5,-1
 251 128 l 25,6,-1
 290 160 l 25,7,-1
 337 384 l 25,8,-1
 401 384 l 25,9,-1
 333 64 l 25,10,-1
 269 64 l 25,11,-1
 275 94 l 25,12,-1
 237 64 l 9,13,-1
 77 64 l 17,0,-1
EndSplineSet
EndChar

StartChar: v
Encoding: 118 118 86
Width: 384
Flags: W
LayerCount: 2
Fore
SplineSet
141 64 m 25,0,-1
 337 384 l 25,1,-1
 401 384 l 25,2,-1
 205 64 l 25,3,-1
 141 64 l 25,0,-1
141 64 m 25,4,-1
 81 384 l 25,5,-1
 145 384 l 25,6,-1
 205 64 l 25,7,-1
 141 64 l 25,4,-1
EndSplineSet
EndChar

StartChar: w
Encoding: 119 119 87
Width: 384
Flags: W
LayerCount: 2
Fore
SplineSet
337 384 m 1,0,-1
 401 384 l 1,1,-1
 269 64 l 25,2,-1
 205 64 l 25,3,-1
 337 384 l 1,0,-1
81 384 m 1,4,-1
 145 384 l 1,5,-1
 141 64 l 25,6,-1
 77 64 l 25,7,-1
 81 384 l 1,4,-1
209 384 m 1,8,-1
 273 384 l 1,9,-1
 269 64 l 25,10,-1
 205 64 l 25,11,-1
 209 384 l 1,8,-1
209 384 m 1,12,-1
 273 384 l 1,13,-1
 141 64 l 25,14,-1
 77 64 l 25,15,-1
 209 384 l 1,12,-1
EndSplineSet
EndChar

StartChar: x
Encoding: 120 120 88
Width: 384
Flags: W
LayerCount: 2
Fore
SplineSet
337 384 m 25,0,-1
 401 384 l 25,1,-1
 394 352 l 25,2,-1
 77 64 l 25,3,-1
 13 64 l 25,4,-1
 20 96 l 25,5,-1
 337 384 l 25,0,-1
81 384 m 25,6,-1
 145 384 l 25,7,-1
 340 96 l 25,8,-1
 333 64 l 25,9,-1
 269 64 l 25,10,-1
 74 352 l 25,11,-1
 81 384 l 25,6,-1
EndSplineSet
EndChar

StartChar: y
Encoding: 121 121 89
Width: 384
Flags: W
LayerCount: 2
Fore
SplineSet
-41 -192 m 1,0,-1
 23 -192 l 1,1,-1
 401 384 l 1,2,-1
 337 384 l 1,3,-1
 -41 -192 l 1,0,-1
193 128 m 17,4,-1
 145 384 l 9,5,-1
 81 384 l 25,6,-1
 141 64 l 25,7,-1
 193 128 l 17,4,-1
EndSplineSet
EndChar

StartChar: z
Encoding: 122 122 90
Width: 384
Flags: W
LayerCount: 2
Fore
SplineSet
81 384 m 25,0,-1
 401 384 l 25,1,-1
 381 288 l 25,2,-1
 91 128 l 25,3,-1
 347 128 l 25,4,-1
 333 64 l 25,5,-1
 13 64 l 25,6,-1
 34 160 l 25,7,-1
 324 320 l 25,8,-1
 68 320 l 25,9,-1
 81 384 l 25,0,-1
EndSplineSet
EndChar

StartChar: braceleft
Encoding: 123 123 91
Width: 384
Flags: W
LayerCount: 2
Fore
SplineSet
392 640 m 25,0,-1
 378 576 l 25,1,-1
 346 576 l 25,2,-1
 307 544 l 1,3,-1
 280 416 l 25,4,-1
 202 352 l 25,5,-1
 253 288 l 1,6,-1
 226 160 l 25,7,-1
 251 128 l 25,8,-1
 283 128 l 1,9,-1
 269 64 l 25,10,-1
 205 64 l 1,11,-1
 155 128 l 25,12,-1
 182 256 l 1,13,-1
 132 320 l 25,14,-1
 145 384 l 25,15,-1
 223 448 l 25,16,-1
 250 576 l 1,17,-1
 328 640 l 25,18,-1
 392 640 l 25,0,-1
EndSplineSet
EndChar

StartChar: bar
Encoding: 124 124 92
Width: 384
Flags: W
LayerCount: 2
Fore
SplineSet
128 768 m 1,0,-1
 192 768 l 1,1,-1
 192 64 l 1,2,-1
 128 64 l 1,3,-1
 128 768 l 1,0,-1
EndSplineSet
EndChar

StartChar: braceright
Encoding: 125 125 93
Width: 384
Flags: W
LayerCount: 2
Fore
SplineSet
200 640 m 25,0,-1
 264 640 l 25,1,-1
 314 576 l 1,2,-1
 287 448 l 25,3,-1
 337 384 l 25,4,-1
 324 320 l 25,5,-1
 246 256 l 1,6,-1
 219 128 l 25,7,-1
 141 64 l 1,8,-1
 77 64 l 25,9,-1
 91 128 l 1,10,-1
 123 128 l 25,11,-1
 162 160 l 25,12,-1
 189 288 l 1,13,-1
 266 352 l 25,14,-1
 216 416 l 25,15,-1
 243 544 l 1,16,-1
 218 576 l 25,17,-1
 186 576 l 25,18,-1
 200 640 l 25,0,-1
EndSplineSet
EndChar

StartChar: asciitilde
Encoding: 126 126 94
Width: 384
Flags: W
LayerCount: 2
Fore
SplineSet
81 384 m 25,0,-1
 159 448 l 25,1,-1
 223 448 l 1,2,-1
 292 320 l 25,3,-1
 369 384 l 25,4,-1
 401 384 l 25,5,-1
 388 320 l 25,6,-1
 310 256 l 25,7,-1
 246 256 l 25,8,-1
 177 384 l 25,9,-1
 100 320 l 25,10,-1
 68 320 l 25,11,-1
 81 384 l 25,0,-1
EndSplineSet
EndChar

StartChar: uni0410
Encoding: 1040 1040 95
Width: 384
Flags: W
LayerCount: 2
Fore
SplineSet
177 384 m 25,0,-1
 305 384 l 25,1,-1
 292 320 l 25,2,-1
 164 320 l 25,3,-1
 177 384 l 25,0,-1
264 640 m 25,4,-1
 328 640 l 25,5,-1
 77 64 l 25,6,-1
 13 64 l 25,7,-1
 264 640 l 25,4,-1
264 640 m 25,8,-1
 328 640 l 25,9,-1
 333 64 l 25,10,-1
 269 64 l 25,11,-1
 264 640 l 25,8,-1
EndSplineSet
EndChar

StartChar: uni0412
Encoding: 1042 1042 96
Width: 384
Flags: W
LayerCount: 2
Fore
SplineSet
292 320 m 25,0,-1
 132 320 l 25,1,-1
 91 128 l 25,2,-1
 251 128 l 25,3,-1
 290 160 l 25,4,-1
 317 288 l 25,5,-1
 292 320 l 25,0,-1
346 576 m 25,6,-1
 186 576 l 25,7,-1
 145 384 l 25,8,-1
 305 384 l 25,9,-1
 344 416 l 25,10,-1
 371 544 l 25,11,-1
 346 576 l 25,6,-1
136 640 m 25,12,-1
 392 640 l 25,13,-1
 442 576 l 25,14,-1
 401 384 l 25,15,-1
 362 352 l 25,16,-1
 388 320 l 25,17,-1
 347 128 l 25,18,-1
 269 64 l 25,19,-1
 13 64 l 25,20,-1
 136 640 l 25,12,-1
EndSplineSet
EndChar

StartChar: uni0421
Encoding: 1057 1057 97
Width: 384
Flags: W
LayerCount: 2
Fore
SplineSet
392 640 m 25,0,-1
 442 576 l 25,1,-1
 415 448 l 25,2,-1
 351 448 l 25,3,-1
 371 544 l 25,4,-1
 346 576 l 25,5,-1
 218 576 l 25,6,-1
 179 544 l 25,7,-1
 98 160 l 25,8,-1
 123 128 l 25,9,-1
 251 128 l 25,10,-1
 290 160 l 25,11,-1
 310 256 l 25,12,-1
 374 256 l 25,13,-1
 347 128 l 25,14,-1
 269 64 l 25,15,-1
 77 64 l 25,16,-1
 27 128 l 25,17,-1
 122 576 l 25,18,-1
 200 640 l 25,19,-1
 392 640 l 25,0,-1
EndSplineSet
EndChar

StartChar: uni0422
Encoding: 1058 1058 98
Width: 384
Flags: W
LayerCount: 2
Fore
SplineSet
136 640 m 25,0,-1
 456 640 l 25,1,-1
 442 576 l 25,2,-1
 314 576 l 25,3,-1
 205 64 l 25,4,-1
 141 64 l 25,5,-1
 250 576 l 25,6,-1
 122 576 l 25,7,-1
 136 640 l 25,0,-1
EndSplineSet
EndChar

StartChar: uni0415
Encoding: 1045 1045 99
Width: 384
Flags: W
LayerCount: 2
Fore
SplineSet
186 576 m 1,0,-1
 145 384 l 1,1,-1
 401 384 l 25,2,-1
 388 320 l 25,3,-1
 132 320 l 1,4,-1
 91 128 l 1,5,-1
 347 128 l 25,6,-1
 333 64 l 25,7,-1
 13 64 l 1,8,-1
 136 640 l 1,9,-1
 456 640 l 25,10,-1
 442 576 l 25,11,-1
 186 576 l 1,0,-1
EndSplineSet
EndChar

StartChar: uni0425
Encoding: 1061 1061 100
Width: 384
Flags: W
LayerCount: 2
Fore
SplineSet
392 640 m 25,0,-1
 456 640 l 25,1,-1
 77 64 l 25,2,-1
 13 64 l 25,3,-1
 392 640 l 25,0,-1
136 640 m 25,4,-1
 200 640 l 25,5,-1
 333 64 l 25,6,-1
 269 64 l 25,7,-1
 136 640 l 25,4,-1
EndSplineSet
EndChar

StartChar: uni0420
Encoding: 1056 1056 101
Width: 384
Flags: W
LayerCount: 2
Fore
SplineSet
346 576 m 25,0,-1
 186 576 l 25,1,-1
 145 384 l 25,2,-1
 305 384 l 25,3,-1
 344 416 l 25,4,-1
 371 544 l 25,5,-1
 346 576 l 25,0,-1
136 640 m 25,6,-1
 392 640 l 25,7,-1
 442 576 l 25,8,-1
 401 384 l 25,9,-1
 324 320 l 25,10,-1
 132 320 l 25,11,-1
 77 64 l 25,12,-1
 13 64 l 25,13,-1
 136 640 l 25,6,-1
EndSplineSet
EndChar

StartChar: uni0423
Encoding: 1059 1059 102
Width: 384
Flags: W
LayerCount: 2
Fore
SplineSet
13 64 m 1,0,-1
 77 64 l 1,1,-1
 456 640 l 1,2,-1
 392 640 l 1,3,-1
 13 64 l 1,0,-1
247 384 m 17,4,-1
 200 640 l 9,5,-1
 136 640 l 25,6,-1
 196 320 l 25,7,-1
 247 384 l 17,4,-1
EndSplineSet
EndChar

StartChar: uni0443
Encoding: 1091 1091 103
Width: 384
Flags: W
LayerCount: 2
Fore
SplineSet
-41 -192 m 1,0,-1
 23 -192 l 1,1,-1
 401 384 l 1,2,-1
 337 384 l 1,3,-1
 -41 -192 l 1,0,-1
193 128 m 17,4,-1
 145 384 l 9,5,-1
 81 384 l 25,6,-1
 141 64 l 25,7,-1
 193 128 l 17,4,-1
EndSplineSet
EndChar

StartChar: uni0417
Encoding: 1047 1047 104
Width: 384
Flags: W
LayerCount: 2
Fore
SplineSet
200 640 m 25,0,-1
 392 640 l 25,1,-1
 442 576 l 25,2,-1
 401 384 l 25,3,-1
 362 352 l 25,4,-1
 388 320 l 25,5,-1
 347 128 l 25,6,-1
 269 64 l 25,7,-1
 77 64 l 25,8,-1
 27 128 l 25,9,-1
 54 256 l 25,10,-1
 118 256 l 25,11,-1
 98 160 l 25,12,-1
 123 128 l 25,13,-1
 251 128 l 25,14,-1
 290 160 l 25,15,-1
 317 288 l 25,16,-1
 292 320 l 25,17,-1
 196 320 l 25,18,-1
 209 384 l 25,19,-1
 305 384 l 25,20,-1
 344 416 l 25,21,-1
 371 544 l 25,22,-1
 346 576 l 25,23,-1
 218 576 l 25,24,-1
 179 544 l 25,25,-1
 159 448 l 25,26,-1
 95 448 l 25,27,-1
 122 576 l 25,28,-1
 200 640 l 25,0,-1
EndSplineSet
EndChar

StartChar: uni042D
Encoding: 1069 1069 105
Width: 384
Flags: W
LayerCount: 2
Fore
SplineSet
324 320 m 25,0,-1
 196 320 l 1,1,-1
 209 384 l 1,2,-1
 337 384 l 25,3,-1
 371 544 l 25,4,-1
 346 576 l 25,5,-1
 218 576 l 25,6,-1
 179 544 l 25,7,-1
 159 448 l 25,8,-1
 95 448 l 25,9,-1
 122 576 l 25,10,-1
 200 640 l 25,11,-1
 392 640 l 25,12,-1
 442 576 l 1,13,-1
 347 128 l 25,14,-1
 269 64 l 1,15,-1
 77 64 l 25,16,-1
 27 128 l 25,17,-1
 54 256 l 25,18,-1
 118 256 l 25,19,-1
 98 160 l 25,20,-1
 123 128 l 25,21,-1
 251 128 l 25,22,-1
 290 160 l 25,23,-1
 324 320 l 25,0,-1
EndSplineSet
EndChar

StartChar: uni041A
Encoding: 1050 1050 106
Width: 384
Flags: W
LayerCount: 2
Fore
SplineSet
136 640 m 25,0,-1
 200 640 l 25,1,-1
 159 448 l 25,2,-1
 392 640 l 25,3,-1
 456 640 l 25,4,-1
 449 608 l 25,5,-1
 138 352 l 25,6,-1
 340 96 l 25,7,-1
 333 64 l 25,8,-1
 269 64 l 25,9,-1
 118 256 l 25,10,-1
 77 64 l 25,11,-1
 13 64 l 25,12,-1
 136 640 l 25,0,-1
EndSplineSet
EndChar

StartChar: uni041C
Encoding: 1052 1052 107
Width: 384
Flags: W
LayerCount: 2
Fore
SplineSet
392 640 m 29,0,-1
 456 640 l 25,1,-1
 205 64 l 25,2,-1
 141 64 l 25,3,-1
 392 640 l 29,0,-1
136 640 m 25,4,-1
 200 640 l 25,5,-1
 205 64 l 25,6,-1
 141 64 l 25,7,-1
 136 640 l 25,4,-1
392 640 m 25,8,-1
 456 640 l 25,9,-1
 333 64 l 25,10,-1
 269 64 l 25,11,-1
 392 640 l 25,8,-1
136 640 m 25,12,-1
 200 640 l 25,13,-1
 77 64 l 25,14,-1
 13 64 l 25,15,-1
 136 640 l 25,12,-1
EndSplineSet
EndChar

StartChar: uni041E
Encoding: 1054 1054 108
Width: 384
Flags: W
LayerCount: 2
Fore
SplineSet
346 576 m 25,0,-1
 218 576 l 25,1,-1
 179 544 l 25,2,-1
 98 160 l 25,3,-1
 123 128 l 25,4,-1
 251 128 l 25,5,-1
 290 160 l 25,6,-1
 371 544 l 25,7,-1
 346 576 l 25,0,-1
200 640 m 25,8,-1
 392 640 l 25,9,-1
 442 576 l 25,10,-1
 347 128 l 25,11,-1
 269 64 l 25,12,-1
 77 64 l 25,13,-1
 27 128 l 25,14,-1
 122 576 l 25,15,-1
 200 640 l 25,8,-1
EndSplineSet
EndChar

StartChar: uni041D
Encoding: 1053 1053 109
Width: 384
Flags: W
LayerCount: 2
Fore
SplineSet
136 640 m 25,0,-1
 200 640 l 25,1,-1
 145 384 l 25,2,-1
 337 384 l 25,3,-1
 392 640 l 25,4,-1
 456 640 l 25,5,-1
 333 64 l 25,6,-1
 269 64 l 25,7,-1
 324 320 l 25,8,-1
 132 320 l 25,9,-1
 77 64 l 25,10,-1
 13 64 l 25,11,-1
 136 640 l 25,0,-1
EndSplineSet
EndChar

StartChar: uni0430
Encoding: 1072 1072 110
Width: 384
Flags: W
LayerCount: 2
Fore
SplineSet
292 320 m 25,0,-1
 164 320 l 25,1,-1
 125 288 l 25,2,-1
 98 160 l 1,3,-1
 123 128 l 25,4,-1
 251 128 l 25,5,-1
 290 160 l 1,6,-1
 317 288 l 25,7,-1
 292 320 l 25,0,-1
145 384 m 1,8,-1
 305 384 l 1,9,-1
 330 352 l 1,10,-1
 337 384 l 1,11,-1
 401 384 l 1,12,-1
 333 64 l 1,13,-1
 269 64 l 1,14,-1
 276 96 l 1,15,-1
 237 64 l 1,16,-1
 77 64 l 1,17,-1
 27 128 l 1,18,-1
 68 320 l 25,19,-1
 145 384 l 1,8,-1
EndSplineSet
EndChar

StartChar: uni0435
Encoding: 1077 1077 111
Width: 384
Flags: W
LayerCount: 2
Fore
SplineSet
125 288 m 1,0,-1
 118 256 l 1,1,-1
 310 256 l 1,2,-1
 317 288 l 1,3,-1
 292 320 l 25,4,-1
 164 320 l 25,5,-1
 125 288 l 1,0,-1
347 128 m 1049,6,-1
123 128 m 25,7,-1
 347 128 l 1,8,-1
 269 64 l 25,9,-1
 77 64 l 25,10,-1
 27 128 l 1,11,-1
 68 320 l 25,12,-1
 145 384 l 25,13,-1
 337 384 l 25,14,-1
 388 320 l 1,15,-1
 360 192 l 25,16,-1
 104 192 l 25,17,-1
 98 160 l 25,18,-1
 123 128 l 25,7,-1
EndSplineSet
EndChar

StartChar: uni0442
Encoding: 1090 1090 112
Width: 384
Flags: W
LayerCount: 2
Fore
SplineSet
81 384 m 25,0,-1
 145 384 l 25,1,-1
 139 354 l 25,2,-1
 177 384 l 1,3,-1
 209 384 l 25,4,-1
 234 352 l 1,5,-1
 273 384 l 25,6,-1
 337 384 l 1,7,-1
 388 320 l 25,8,-1
 333 64 l 25,9,-1
 269 64 l 25,10,-1
 317 288 l 25,11,-1
 292 320 l 25,12,-1
 253 288 l 25,13,-1
 205 64 l 25,14,-1
 141 64 l 25,15,-1
 189 288 l 25,16,-1
 164 320 l 25,17,-1
 125 288 l 25,18,-1
 77 64 l 25,19,-1
 13 64 l 25,20,-1
 81 384 l 25,0,-1
EndSplineSet
EndChar

StartChar: uni043D
Encoding: 1085 1085 113
Width: 384
Flags: W
LayerCount: 2
Fore
SplineSet
81 384 m 25,0,-1
 145 384 l 1,1,-1
 118 256 l 1,2,-1
 310 256 l 1,3,-1
 337 384 l 1,4,-1
 401 384 l 25,5,-1
 333 64 l 1,6,-1
 269 64 l 1,7,-1
 296 192 l 25,8,-1
 104 192 l 25,9,-1
 77 64 l 1,10,-1
 13 64 l 1,11,-1
 81 384 l 25,0,-1
EndSplineSet
EndChar

StartChar: uni043E
Encoding: 1086 1086 114
Width: 384
Flags: W
LayerCount: 2
Fore
SplineSet
292 320 m 25,0,-1
 164 320 l 25,1,-1
 125 288 l 25,2,-1
 98 160 l 1,3,-1
 123 128 l 25,4,-1
 251 128 l 25,5,-1
 290 160 l 1,6,-1
 317 288 l 25,7,-1
 292 320 l 25,0,-1
145 384 m 25,8,-1
 337 384 l 25,9,-1
 388 320 l 25,10,-1
 347 128 l 1,11,-1
 269 64 l 25,12,-1
 77 64 l 25,13,-1
 27 128 l 1,14,-1
 68 320 l 25,15,-1
 145 384 l 25,8,-1
EndSplineSet
EndChar

StartChar: uni0445
Encoding: 1093 1093 115
Width: 384
Flags: W
LayerCount: 2
Fore
SplineSet
337 384 m 25,0,-1
 401 384 l 25,1,-1
 394 352 l 25,2,-1
 77 64 l 25,3,-1
 13 64 l 25,4,-1
 20 96 l 25,5,-1
 337 384 l 25,0,-1
81 384 m 25,6,-1
 145 384 l 25,7,-1
 340 96 l 25,8,-1
 333 64 l 25,9,-1
 269 64 l 25,10,-1
 74 352 l 25,11,-1
 81 384 l 25,6,-1
EndSplineSet
EndChar

StartChar: uni0401
Encoding: 1025 1025 116
Width: 384
Flags: W
LayerCount: 2
Fore
SplineSet
355 768 m 25,0,-1
 419 768 l 25,1,-1
 405 704 l 25,2,-1
 341 704 l 25,3,-1
 355 768 l 25,0,-1
227 768 m 25,4,-1
 291 768 l 25,5,-1
 277 704 l 25,6,-1
 213 704 l 25,7,-1
 227 768 l 25,4,-1
186 576 m 1,8,-1
 145 384 l 1,9,-1
 401 384 l 25,10,-1
 388 320 l 25,11,-1
 132 320 l 1,12,-1
 91 128 l 1,13,-1
 347 128 l 25,14,-1
 333 64 l 25,15,-1
 13 64 l 1,16,-1
 136 640 l 1,17,-1
 456 640 l 25,18,-1
 442 576 l 25,19,-1
 186 576 l 1,8,-1
EndSplineSet
EndChar

StartChar: uni0451
Encoding: 1105 1105 117
Width: 384
Flags: W
LayerCount: 2
Fore
SplineSet
300 512 m 25,0,-1
 364 512 l 25,1,-1
 351 448 l 25,2,-1
 287 448 l 25,3,-1
 300 512 l 25,0,-1
172 512 m 25,4,-1
 236 512 l 25,5,-1
 223 448 l 25,6,-1
 159 448 l 25,7,-1
 172 512 l 25,4,-1
125 288 m 1,8,-1
 118 256 l 1,9,-1
 310 256 l 1,10,-1
 317 288 l 1,11,-1
 292 320 l 25,12,-1
 164 320 l 25,13,-1
 125 288 l 1,8,-1
347 128 m 1049,14,-1
123 128 m 25,15,-1
 347 128 l 1,16,-1
 269 64 l 25,17,-1
 77 64 l 25,18,-1
 27 128 l 1,19,-1
 68 320 l 25,20,-1
 145 384 l 25,21,-1
 337 384 l 25,22,-1
 388 320 l 1,23,-1
 360 192 l 25,24,-1
 104 192 l 25,25,-1
 98 160 l 25,26,-1
 123 128 l 25,15,-1
EndSplineSet
EndChar

StartChar: uni044E
Encoding: 1102 1102 118
Width: 384
Flags: W
LayerCount: 2
Fore
SplineSet
292 320 m 25,0,-1
 253 288 l 25,1,-1
 226 160 l 25,2,-1
 251 128 l 25,3,-1
 290 160 l 25,4,-1
 317 288 l 25,5,-1
 292 320 l 25,0,-1
81 384 m 25,6,-1
 145 384 l 25,7,-1
 118 256 l 25,8,-1
 182 256 l 25,9,-1
 196 320 l 25,10,-1
 273 384 l 25,11,-1
 337 384 l 1,12,-1
 388 320 l 25,13,-1
 347 128 l 25,14,-1
 269 64 l 25,15,-1
 205 64 l 25,16,-1
 155 128 l 25,17,-1
 168 192 l 25,18,-1
 104 192 l 25,19,-1
 77 64 l 25,20,-1
 13 64 l 25,21,-1
 81 384 l 25,6,-1
EndSplineSet
EndChar

StartChar: uni0431
Encoding: 1073 1073 119
Width: 384
Flags: W
LayerCount: 2
Fore
SplineSet
292 320 m 25,0,-1
 164 320 l 25,1,-1
 125 288 l 25,2,-1
 98 160 l 25,3,-1
 123 128 l 25,4,-1
 251 128 l 25,5,-1
 290 160 l 25,6,-1
 317 288 l 25,7,-1
 292 320 l 25,0,-1
424 640 m 25,8,-1
 456 640 l 25,9,-1
 442 576 l 25,10,-1
 364 512 l 25,11,-1
 204 512 l 25,12,-1
 166 480 l 25,13,-1
 138 352 l 25,14,-1
 177 384 l 25,15,-1
 337 384 l 25,16,-1
 388 320 l 25,17,-1
 347 128 l 25,18,-1
 269 64 l 25,19,-1
 77 64 l 25,20,-1
 27 128 l 25,21,-1
 108 512 l 25,22,-1
 186 576 l 25,23,-1
 346 576 l 25,24,-1
 424 640 l 25,8,-1
EndSplineSet
EndChar

StartChar: uni0411
Encoding: 1041 1041 120
Width: 384
Flags: W
LayerCount: 2
Fore
SplineSet
132 320 m 25,0,-1
 91 128 l 25,1,-1
 251 128 l 25,2,-1
 290 160 l 25,3,-1
 317 288 l 25,4,-1
 292 320 l 25,5,-1
 132 320 l 25,0,-1
136 640 m 25,6,-1
 456 640 l 25,7,-1
 442 576 l 25,8,-1
 186 576 l 25,9,-1
 145 384 l 25,10,-1
 337 384 l 25,11,-1
 388 320 l 25,12,-1
 347 128 l 25,13,-1
 269 64 l 25,14,-1
 13 64 l 25,15,-1
 136 640 l 25,6,-1
EndSplineSet
EndChar

StartChar: uni0413
Encoding: 1043 1043 121
Width: 384
Flags: W
LayerCount: 2
Fore
SplineSet
136 640 m 29,0,-1
 456 640 l 25,1,-1
 442 576 l 25,2,-1
 186 576 l 25,3,-1
 77 64 l 25,4,-1
 13 64 l 25,5,-1
 136 640 l 29,0,-1
EndSplineSet
EndChar

StartChar: uni0414
Encoding: 1044 1044 122
Width: 384
Flags: W
LayerCount: 2
Fore
SplineSet
314 576 m 25,0,-1
 282 576 l 25,1,-1
 243 544 l 25,2,-1
 155 128 l 25,3,-1
 219 128 l 25,4,-1
 314 576 l 25,0,-1
264 640 m 25,5,-1
 392 640 l 25,6,-1
 283 128 l 25,7,-1
 347 128 l 25,8,-1
 306 -64 l 25,9,-1
 242 -64 l 25,10,-1
 269 64 l 25,11,-1
 77 64 l 25,12,-1
 50 -64 l 25,13,-1
 -14 -64 l 25,14,-1
 27 128 l 25,15,-1
 91 128 l 25,16,-1
 186 576 l 25,17,-1
 264 640 l 25,5,-1
EndSplineSet
EndChar

StartChar: uni0416
Encoding: 1046 1046 123
Width: 384
Flags: W
LayerCount: 2
Fore
SplineSet
264 640 m 25,0,-1
 328 640 l 25,1,-1
 205 64 l 25,2,-1
 141 64 l 25,3,-1
 264 640 l 25,0,-1
392 640 m 25,4,-1
 456 640 l 25,5,-1
 77 64 l 25,6,-1
 13 64 l 25,7,-1
 392 640 l 25,4,-1
136 640 m 25,8,-1
 200 640 l 25,9,-1
 333 64 l 25,10,-1
 269 64 l 25,11,-1
 136 640 l 25,8,-1
EndSplineSet
EndChar

StartChar: uni0436
Encoding: 1078 1078 124
Width: 384
Flags: W
LayerCount: 2
Fore
SplineSet
209 384 m 25,0,-1
 273 384 l 25,1,-1
 205 64 l 25,2,-1
 141 64 l 25,3,-1
 209 384 l 25,0,-1
337 384 m 25,4,-1
 401 384 l 25,5,-1
 394 352 l 25,6,-1
 77 64 l 25,7,-1
 13 64 l 25,8,-1
 20 96 l 25,9,-1
 337 384 l 25,4,-1
81 384 m 25,10,-1
 145 384 l 25,11,-1
 340 96 l 25,12,-1
 333 64 l 25,13,-1
 269 64 l 25,14,-1
 74 352 l 25,15,-1
 81 384 l 25,10,-1
EndSplineSet
EndChar

StartChar: uni0418
Encoding: 1048 1048 125
Width: 384
Flags: W
LayerCount: 2
Fore
SplineSet
392 640 m 25,0,-1
 456 640 l 25,1,-1
 77 64 l 25,2,-1
 13 64 l 25,3,-1
 392 640 l 25,0,-1
392 640 m 25,4,-1
 456 640 l 25,5,-1
 333 64 l 25,6,-1
 269 64 l 25,7,-1
 392 640 l 25,4,-1
136 640 m 25,8,-1
 200 640 l 25,9,-1
 77 64 l 25,10,-1
 13 64 l 25,11,-1
 136 640 l 25,8,-1
EndSplineSet
EndChar

StartChar: uni0419
Encoding: 1049 1049 126
Width: 384
Flags: W
LayerCount: 2
Fore
SplineSet
227 768 m 25,0,-1
 419 768 l 25,1,-1
 405 704 l 25,2,-1
 213 704 l 25,3,-1
 227 768 l 25,0,-1
392 640 m 25,4,-1
 456 640 l 25,5,-1
 77 64 l 25,6,-1
 13 64 l 25,7,-1
 392 640 l 25,4,-1
392 640 m 25,8,-1
 456 640 l 25,9,-1
 333 64 l 25,10,-1
 269 64 l 25,11,-1
 392 640 l 25,8,-1
136 640 m 25,12,-1
 200 640 l 25,13,-1
 77 64 l 25,14,-1
 13 64 l 25,15,-1
 136 640 l 25,12,-1
EndSplineSet
EndChar

StartChar: uni041B
Encoding: 1051 1051 127
Width: 384
Flags: W
LayerCount: 2
Fore
SplineSet
200 640 m 25,0,-1
 456 640 l 25,1,-1
 333 64 l 25,2,-1
 269 64 l 25,3,-1
 378 576 l 25,4,-1
 250 576 l 25,5,-1
 155 128 l 25,6,-1
 77 64 l 25,7,-1
 13 64 l 25,8,-1
 20 96 l 25,9,-1
 98 160 l 25,10,-1
 200 640 l 25,0,-1
EndSplineSet
EndChar

StartChar: uni041F
Encoding: 1055 1055 128
Width: 384
Flags: W
LayerCount: 2
Fore
SplineSet
136 640 m 25,0,-1
 456 640 l 25,1,-1
 333 64 l 25,2,-1
 269 64 l 25,3,-1
 378 576 l 25,4,-1
 186 576 l 25,5,-1
 77 64 l 25,6,-1
 13 64 l 25,7,-1
 136 640 l 25,0,-1
EndSplineSet
EndChar

StartChar: uni043F
Encoding: 1087 1087 129
Width: 384
Flags: W
LayerCount: 2
Fore
SplineSet
337 384 m 17,0,-1
 388 320 l 25,1,-1
 333 64 l 25,2,-1
 269 64 l 25,3,-1
 317 288 l 25,4,-1
 292 320 l 25,5,-1
 164 320 l 25,6,-1
 125 288 l 25,7,-1
 77 64 l 25,8,-1
 13 64 l 25,9,-1
 81 384 l 25,10,-1
 145 384 l 25,11,-1
 139 354 l 25,12,-1
 177 384 l 9,13,-1
 337 384 l 17,0,-1
EndSplineSet
EndChar

StartChar: uni0424
Encoding: 1060 1060 130
Width: 384
Flags: W
LayerCount: 2
Fore
SplineSet
291 768 m 25,0,-1
 355 768 l 25,1,-1
 178 -64 l 25,2,-1
 114 -64 l 25,3,-1
 291 768 l 25,0,-1
346 576 m 25,4,-1
 218 576 l 25,5,-1
 179 544 l 25,6,-1
 98 160 l 25,7,-1
 123 128 l 25,8,-1
 251 128 l 25,9,-1
 290 160 l 25,10,-1
 371 544 l 25,11,-1
 346 576 l 25,4,-1
200 640 m 25,12,-1
 392 640 l 25,13,-1
 442 576 l 25,14,-1
 347 128 l 25,15,-1
 269 64 l 25,16,-1
 77 64 l 25,17,-1
 27 128 l 25,18,-1
 122 576 l 25,19,-1
 200 640 l 25,12,-1
EndSplineSet
EndChar

StartChar: uni0444
Encoding: 1092 1092 131
Width: 384
Flags: W
LayerCount: 2
Fore
SplineSet
236 512 m 25,0,-1
 300 512 l 25,1,-1
 178 -64 l 25,2,-1
 114 -64 l 25,3,-1
 236 512 l 25,0,-1
292 320 m 25,4,-1
 164 320 l 25,5,-1
 125 288 l 25,6,-1
 98 160 l 1,7,-1
 123 128 l 25,8,-1
 251 128 l 25,9,-1
 290 160 l 1,10,-1
 317 288 l 25,11,-1
 292 320 l 25,4,-1
145 384 m 25,12,-1
 337 384 l 25,13,-1
 388 320 l 25,14,-1
 347 128 l 1,15,-1
 269 64 l 25,16,-1
 77 64 l 25,17,-1
 27 128 l 1,18,-1
 68 320 l 25,19,-1
 145 384 l 25,12,-1
EndSplineSet
EndChar

StartChar: uni0426
Encoding: 1062 1062 132
Width: 384
Flags: W
LayerCount: 2
Fore
SplineSet
136 640 m 25,0,-1
 200 640 l 25,1,-1
 91 128 l 25,2,-1
 283 128 l 25,3,-1
 392 640 l 25,4,-1
 456 640 l 25,5,-1
 347 128 l 25,6,-1
 411 128 l 25,7,-1
 370 -64 l 25,8,-1
 306 -64 l 25,9,-1
 333 64 l 25,10,-1
 13 64 l 25,11,-1
 136 640 l 25,0,-1
EndSplineSet
EndChar

StartChar: uni0427
Encoding: 1063 1063 134
Width: 384
Flags: W
LayerCount: 2
Fore
SplineSet
136 640 m 1,0,-1
 200 640 l 1,1,-1
 152 416 l 25,2,-1
 177 384 l 25,3,-1
 305 384 l 25,4,-1
 344 416 l 25,5,-1
 392 640 l 1,6,-1
 456 640 l 25,7,-1
 333 64 l 25,8,-1
 269 64 l 1,9,-1
 330 352 l 25,10,-1
 292 320 l 25,11,-1
 132 320 l 25,12,-1
 81 384 l 25,13,-1
 136 640 l 1,0,-1
EndSplineSet
EndChar

StartChar: uni0428
Encoding: 1064 1064 135
Width: 384
Flags: W
LayerCount: 2
Fore
SplineSet
136 640 m 25,0,-1
 200 640 l 25,1,-1
 91 128 l 25,2,-1
 155 128 l 25,3,-1
 264 640 l 25,4,-1
 328 640 l 25,5,-1
 219 128 l 25,6,-1
 283 128 l 25,7,-1
 392 640 l 25,8,-1
 456 640 l 25,9,-1
 333 64 l 25,10,-1
 13 64 l 25,11,-1
 136 640 l 25,0,-1
EndSplineSet
EndChar

StartChar: uni0429
Encoding: 1065 1065 136
Width: 384
Flags: W
LayerCount: 2
Fore
SplineSet
13 64 m 25,0,-1
 136 640 l 25,1,-1
 200 640 l 25,2,-1
 91 128 l 25,3,-1
 155 128 l 25,4,-1
 264 640 l 25,5,-1
 328 640 l 25,6,-1
 219 128 l 25,7,-1
 283 128 l 25,8,-1
 392 640 l 25,9,-1
 456 640 l 25,10,-1
 347 128 l 25,11,-1
 411 128 l 25,12,-1
 370 -64 l 25,13,-1
 306 -64 l 25,14,-1
 333 64 l 25,15,-1
 13 64 l 25,0,-1
EndSplineSet
EndChar

StartChar: uni042A
Encoding: 1066 1066 137
Width: 384
Flags: W
LayerCount: 2
Fore
SplineSet
292 320 m 25,0,-1
 196 320 l 25,1,-1
 155 128 l 25,2,-1
 251 128 l 1,3,-1
 290 160 l 25,4,-1
 317 288 l 25,5,-1
 292 320 l 25,0,-1
136 640 m 25,6,-1
 264 640 l 1,7,-1
 209 384 l 25,8,-1
 337 384 l 25,9,-1
 388 320 l 25,10,-1
 347 128 l 25,11,-1
 269 64 l 25,12,-1
 77 64 l 25,13,-1
 186 576 l 25,14,-1
 122 576 l 25,15,-1
 136 640 l 25,6,-1
EndSplineSet
EndChar

StartChar: uni042B
Encoding: 1067 1067 138
Width: 384
Flags: W
LayerCount: 2
Fore
SplineSet
164 320 m 25,0,-1
 132 320 l 25,1,-1
 91 128 l 25,2,-1
 123 128 l 25,3,-1
 162 160 l 25,4,-1
 189 288 l 25,5,-1
 164 320 l 25,0,-1
392 640 m 25,6,-1
 456 640 l 25,7,-1
 333 64 l 25,8,-1
 269 64 l 25,9,-1
 392 640 l 25,6,-1
136 640 m 25,10,-1
 200 640 l 25,11,-1
 145 384 l 25,12,-1
 209 384 l 25,13,-1
 260 320 l 25,14,-1
 219 128 l 25,15,-1
 141 64 l 25,16,-1
 13 64 l 25,17,-1
 136 640 l 25,10,-1
EndSplineSet
EndChar

StartChar: uni042C
Encoding: 1068 1068 139
Width: 384
Flags: W
LayerCount: 2
Fore
SplineSet
292 320 m 25,0,-1
 132 320 l 1,1,-1
 91 128 l 1,2,-1
 251 128 l 25,3,-1
 290 160 l 25,4,-1
 317 288 l 25,5,-1
 292 320 l 25,0,-1
136 640 m 25,6,-1
 200 640 l 25,7,-1
 145 384 l 1,8,-1
 337 384 l 25,9,-1
 388 320 l 25,10,-1
 347 128 l 25,11,-1
 269 64 l 25,12,-1
 13 64 l 1,13,-1
 136 640 l 25,6,-1
EndSplineSet
EndChar

StartChar: uni042E
Encoding: 1070 1070 140
Width: 384
Flags: W
LayerCount: 2
Fore
SplineSet
346 576 m 25,0,-1
 307 544 l 25,1,-1
 226 160 l 1,2,-1
 251 128 l 25,3,-1
 290 160 l 1,4,-1
 371 544 l 25,5,-1
 346 576 l 25,0,-1
136 640 m 1,6,-1
 200 640 l 1,7,-1
 145 384 l 1,8,-1
 209 384 l 1,9,-1
 250 576 l 1,10,-1
 328 640 l 25,11,-1
 392 640 l 1,12,-1
 442 576 l 25,13,-1
 347 128 l 1,14,-1
 269 64 l 25,15,-1
 205 64 l 25,16,-1
 155 128 l 1,17,-1
 196 320 l 25,18,-1
 132 320 l 25,19,-1
 77 64 l 1,20,-1
 13 64 l 1,21,-1
 136 640 l 1,6,-1
EndSplineSet
EndChar

StartChar: uni042F
Encoding: 1071 1071 141
Width: 384
Flags: W
LayerCount: 2
Fore
SplineSet
218 576 m 25,0,-1
 179 544 l 25,1,-1
 152 416 l 25,2,-1
 177 384 l 25,3,-1
 337 384 l 25,4,-1
 378 576 l 25,5,-1
 218 576 l 25,0,-1
333 64 m 25,6,-1
 269 64 l 25,7,-1
 310 256 l 25,8,-1
 77 64 l 25,9,-1
 13 64 l 25,10,-1
 20 96 l 25,11,-1
 292 320 l 25,12,-1
 132 320 l 25,13,-1
 81 384 l 25,14,-1
 122 576 l 25,15,-1
 200 640 l 25,16,-1
 456 640 l 25,17,-1
 333 64 l 25,6,-1
EndSplineSet
EndChar

StartChar: uni0437
Encoding: 1079 1079 142
Width: 384
Flags: W
LayerCount: 2
Fore
SplineSet
290 160 m 25,0,-1
 264 192 l 25,1,-1
 168 192 l 25,2,-1
 182 256 l 25,3,-1
 278 256 l 25,4,-1
 317 288 l 25,5,-1
 292 320 l 25,6,-1
 164 320 l 25,7,-1
 125 288 l 1,8,-1
 118 256 l 25,9,-1
 54 256 l 25,10,-1
 68 320 l 1,11,-1
 145 384 l 25,12,-1
 337 384 l 25,13,-1
 388 320 l 1,14,-1
 374 256 l 1,15,-1
 335 224 l 25,16,-1
 360 192 l 25,17,-1
 347 128 l 1,18,-1
 269 64 l 25,19,-1
 77 64 l 25,20,-1
 27 128 l 1,21,-1
 40 192 l 1,22,-1
 104 192 l 25,23,-1
 98 160 l 1,24,-1
 123 128 l 25,25,-1
 251 128 l 25,26,-1
 290 160 l 25,0,-1
EndSplineSet
EndChar

StartChar: uni0438
Encoding: 1080 1080 143
Width: 384
Flags: W
LayerCount: 2
Fore
SplineSet
77 64 m 17,0,-1
 27 128 l 25,1,-1
 81 384 l 25,2,-1
 145 384 l 25,3,-1
 98 160 l 25,4,-1
 123 128 l 25,5,-1
 251 128 l 25,6,-1
 290 160 l 25,7,-1
 337 384 l 25,8,-1
 401 384 l 25,9,-1
 333 64 l 25,10,-1
 269 64 l 25,11,-1
 275 94 l 25,12,-1
 237 64 l 9,13,-1
 77 64 l 17,0,-1
EndSplineSet
EndChar

StartChar: uni0439
Encoding: 1081 1081 144
Width: 384
Flags: W
LayerCount: 2
Fore
SplineSet
172 512 m 25,0,-1
 364 512 l 25,1,-1
 351 448 l 25,2,-1
 159 448 l 25,3,-1
 172 512 l 25,0,-1
77 64 m 17,4,-1
 27 128 l 25,5,-1
 81 384 l 25,6,-1
 145 384 l 25,7,-1
 98 160 l 25,8,-1
 123 128 l 25,9,-1
 251 128 l 25,10,-1
 290 160 l 25,11,-1
 337 384 l 25,12,-1
 401 384 l 25,13,-1
 333 64 l 25,14,-1
 269 64 l 25,15,-1
 275 94 l 25,16,-1
 237 64 l 9,17,-1
 77 64 l 17,4,-1
EndSplineSet
EndChar

StartChar: uni043C
Encoding: 1084 1084 145
Width: 384
Flags: W
LayerCount: 2
Fore
SplineSet
337 384 m 25,0,-1
 401 384 l 25,1,-1
 333 64 l 25,2,-1
 269 64 l 25,3,-1
 337 384 l 25,0,-1
81 384 m 25,4,-1
 145 384 l 25,5,-1
 77 64 l 25,6,-1
 13 64 l 25,7,-1
 81 384 l 25,4,-1
141 64 m 1,8,-1
 337 384 l 25,9,-1
 401 384 l 1,10,-1
 205 64 l 25,11,-1
 141 64 l 1,8,-1
141 64 m 25,12,-1
 81 384 l 25,13,-1
 145 384 l 25,14,-1
 205 64 l 25,15,-1
 141 64 l 25,12,-1
EndSplineSet
EndChar

StartChar: uni0432
Encoding: 1074 1074 146
Width: 384
Flags: W
LayerCount: 2
Fore
SplineSet
290 160 m 1,0,-1
 303 224 l 1,1,-1
 278 256 l 1,2,-1
 118 256 l 1,3,-1
 98 160 l 1,4,-1
 123 128 l 1,5,-1
 251 128 l 1,6,-1
 290 160 l 1,0,-1
330 352 m 1,7,-1
 371 544 l 1,8,-1
 346 576 l 1,9,-1
 218 576 l 1,10,-1
 179 544 l 1,11,-1
 132 320 l 1,12,-1
 292 320 l 1,13,-1
 330 352 l 1,7,-1
200 640 m 9,14,-1
 392 640 l 1,15,-1
 442 576 l 1,16,-1
 388 320 l 1,17,-1
 349 288 l 25,18,-1
 374 256 l 25,19,-1
 347 128 l 1,20,-1
 269 64 l 1,21,-1
 77 64 l 1,22,-1
 27 128 l 1,23,-1
 122 576 l 1,24,-1
 200 640 l 9,14,-1
EndSplineSet
EndChar

StartChar: uni0433
Encoding: 1075 1075 147
Width: 384
Flags: W
LayerCount: 2
Fore
SplineSet
81 384 m 25,0,-1
 401 384 l 25,1,-1
 388 320 l 25,2,-1
 132 320 l 25,3,-1
 77 64 l 1,4,-1
 13 64 l 1,5,-1
 81 384 l 25,0,-1
EndSplineSet
EndChar

StartChar: uni0434
Encoding: 1076 1076 148
Width: 384
Flags: W
LayerCount: 2
Fore
SplineSet
123 128 m 25,0,-1
 251 128 l 25,1,-1
 290 160 l 25,2,-1
 317 288 l 25,3,-1
 292 320 l 25,4,-1
 164 320 l 25,5,-1
 125 288 l 25,6,-1
 98 160 l 25,7,-1
 123 128 l 25,0,-1
-28 -128 m 25,8,-1
 196 -128 l 1,9,-1
 235 -96 l 25,10,-1
 276 96 l 25,11,-1
 237 64 l 25,12,-1
 77 64 l 25,13,-1
 27 128 l 25,14,-1
 68 320 l 25,15,-1
 145 384 l 25,16,-1
 305 384 l 25,17,-1
 330 352 l 25,18,-1
 337 384 l 25,19,-1
 401 384 l 1,20,-1
 292 -128 l 25,21,-1
 215 -192 l 1,22,-1
 -41 -192 l 25,23,-1
 -28 -128 l 25,8,-1
EndSplineSet
EndChar

StartChar: uni043A
Encoding: 1082 1082 149
Width: 384
Flags: W
LayerCount: 2
Fore
SplineSet
13 64 m 1,0,-1
 81 384 l 17,1,-1
 145 384 l 1,2,-1
 125 288 l 1,3,-1
 337 384 l 1,4,-1
 401 384 l 25,5,-1
 394 352 l 9,6,-1
 111 224 l 25,7,-1
 340 96 l 1,8,-1
 333 64 l 25,9,-1
 269 64 l 1,10,-1
 98 160 l 9,11,-1
 77 64 l 25,12,-1
 13 64 l 1,0,-1
EndSplineSet
EndChar

StartChar: uni043B
Encoding: 1083 1083 150
Width: 384
Flags: W
LayerCount: 2
Fore
SplineSet
155 128 m 17,0,-1
 77 64 l 25,1,-1
 13 64 l 25,2,-1
 20 96 l 25,3,-1
 98 160 l 9,4,-1
 132 320 l 25,5,-1
 209 384 l 25,6,-1
 401 384 l 25,7,-1
 333 64 l 1,8,-1
 269 64 l 1,9,-1
 324 320 l 25,10,-1
 228 320 l 25,11,-1
 189 288 l 25,12,-1
 155 128 l 17,0,-1
EndSplineSet
EndChar

StartChar: uni0440
Encoding: 1088 1088 151
Width: 384
Flags: W
LayerCount: 2
Fore
SplineSet
251 128 m 25,0,-1
 123 128 l 25,1,-1
 98 160 l 25,2,-1
 125 288 l 25,3,-1
 164 320 l 25,4,-1
 292 320 l 25,5,-1
 317 288 l 25,6,-1
 290 160 l 25,7,-1
 251 128 l 25,0,-1
-41 -192 m 25,8,-1
 23 -192 l 25,9,-1
 84 96 l 25,10,-1
 109 64 l 25,11,-1
 269 64 l 25,12,-1
 347 128 l 25,13,-1
 388 320 l 25,14,-1
 337 384 l 25,15,-1
 177 384 l 25,16,-1
 138 352 l 25,17,-1
 145 384 l 25,18,-1
 81 384 l 25,19,-1
 -41 -192 l 25,8,-1
EndSplineSet
EndChar

StartChar: uni0441
Encoding: 1089 1089 152
Width: 384
Flags: W
LayerCount: 2
Fore
SplineSet
337 384 m 25,0,-1
 388 320 l 1,1,-1
 374 256 l 25,2,-1
 310 256 l 25,3,-1
 317 288 l 1,4,-1
 292 320 l 25,5,-1
 164 320 l 25,6,-1
 125 288 l 25,7,-1
 98 160 l 1,8,-1
 123 128 l 25,9,-1
 251 128 l 25,10,-1
 290 160 l 1,11,-1
 296 192 l 25,12,-1
 360 192 l 25,13,-1
 347 128 l 1,14,-1
 269 64 l 25,15,-1
 77 64 l 25,16,-1
 27 128 l 1,17,-1
 68 320 l 25,18,-1
 145 384 l 25,19,-1
 337 384 l 25,0,-1
EndSplineSet
EndChar

StartChar: uni0446
Encoding: 1094 1094 153
Width: 384
Flags: W
LayerCount: 2
Fore
SplineSet
81 384 m 25,0,-1
 145 384 l 25,1,-1
 91 128 l 1,2,-1
 283 128 l 1,3,-1
 337 384 l 25,4,-1
 401 384 l 25,5,-1
 347 128 l 1,6,-1
 411 128 l 25,7,-1
 370 -64 l 25,8,-1
 306 -64 l 25,9,-1
 333 64 l 25,10,-1
 13 64 l 1,11,-1
 81 384 l 25,0,-1
EndSplineSet
EndChar

StartChar: uni0447
Encoding: 1095 1095 154
Width: 384
Flags: W
LayerCount: 2
Fore
SplineSet
81 384 m 1,0,-1
 145 384 l 1,1,-1
 125 288 l 1,2,-1
 150 256 l 25,3,-1
 278 256 l 25,4,-1
 317 288 l 1,5,-1
 337 384 l 1,6,-1
 401 384 l 25,7,-1
 333 64 l 1,8,-1
 269 64 l 1,9,-1
 303 224 l 25,10,-1
 264 192 l 25,11,-1
 104 192 l 25,12,-1
 54 256 l 1,13,-1
 81 384 l 1,0,-1
EndSplineSet
EndChar

StartChar: uni0448
Encoding: 1096 1096 155
Width: 384
Flags: W
LayerCount: 2
Fore
SplineSet
333 64 m 25,0,-1
 269 64 l 25,1,-1
 275 94 l 25,2,-1
 237 64 l 1,3,-1
 205 64 l 25,4,-1
 180 96 l 1,5,-1
 141 64 l 25,6,-1
 77 64 l 1,7,-1
 27 128 l 25,8,-1
 81 384 l 25,9,-1
 145 384 l 25,10,-1
 98 160 l 25,11,-1
 123 128 l 25,12,-1
 162 160 l 25,13,-1
 209 384 l 25,14,-1
 273 384 l 25,15,-1
 226 160 l 25,16,-1
 251 128 l 25,17,-1
 290 160 l 25,18,-1
 337 384 l 25,19,-1
 401 384 l 25,20,-1
 333 64 l 25,0,-1
EndSplineSet
EndChar

StartChar: uni0449
Encoding: 1097 1097 156
Width: 384
Flags: W
LayerCount: 2
Fore
SplineSet
333 64 m 1,0,-1
 269 64 l 25,1,-1
 275 94 l 25,2,-1
 237 64 l 1,3,-1
 205 64 l 25,4,-1
 180 96 l 1,5,-1
 141 64 l 25,6,-1
 77 64 l 1,7,-1
 27 128 l 25,8,-1
 81 384 l 25,9,-1
 145 384 l 25,10,-1
 98 160 l 25,11,-1
 123 128 l 25,12,-1
 162 160 l 25,13,-1
 209 384 l 25,14,-1
 273 384 l 25,15,-1
 226 160 l 25,16,-1
 251 128 l 25,17,-1
 290 160 l 25,18,-1
 337 384 l 25,19,-1
 401 384 l 17,20,-1
 347 128 l 1,21,-1
 411 128 l 1,22,-1
 370 -64 l 1,23,-1
 306 -64 l 1,24,-1
 333 64 l 1,0,-1
EndSplineSet
EndChar

StartChar: uni044A
Encoding: 1098 1098 157
Width: 384
Flags: W
LayerCount: 2
Fore
SplineSet
264 192 m 25,0,-1
 168 192 l 25,1,-1
 155 128 l 1,2,-1
 251 128 l 1,3,-1
 290 160 l 25,4,-1
 264 192 l 25,0,-1
81 384 m 25,5,-1
 209 384 l 1,6,-1
 182 256 l 1,7,-1
 310 256 l 25,8,-1
 360 192 l 25,9,-1
 347 128 l 1,10,-1
 269 64 l 25,11,-1
 77 64 l 1,12,-1
 132 320 l 25,13,-1
 68 320 l 25,14,-1
 81 384 l 25,5,-1
EndSplineSet
EndChar

StartChar: uni044B
Encoding: 1099 1099 158
Width: 384
Flags: W
LayerCount: 2
Fore
SplineSet
136 192 m 25,0,-1
 104 192 l 25,1,-1
 91 128 l 1,2,-1
 123 128 l 25,3,-1
 162 160 l 25,4,-1
 136 192 l 25,0,-1
337 384 m 25,5,-1
 401 384 l 25,6,-1
 333 64 l 1,7,-1
 269 64 l 1,8,-1
 337 384 l 25,5,-1
81 384 m 25,9,-1
 145 384 l 25,10,-1
 118 256 l 1,11,-1
 182 256 l 25,12,-1
 232 192 l 25,13,-1
 219 128 l 1,14,-1
 141 64 l 25,15,-1
 13 64 l 1,16,-1
 81 384 l 25,9,-1
EndSplineSet
EndChar

StartChar: uni044C
Encoding: 1100 1100 159
Width: 384
Flags: W
LayerCount: 2
Fore
SplineSet
264 192 m 25,0,-1
 104 192 l 1,1,-1
 91 128 l 1,2,-1
 251 128 l 25,3,-1
 290 160 l 9,4,-1
 264 192 l 25,0,-1
81 384 m 25,5,-1
 145 384 l 1,6,-1
 118 256 l 1,7,-1
 310 256 l 25,8,-1
 360 192 l 25,9,-1
 347 128 l 1,10,-1
 269 64 l 25,11,-1
 13 64 l 1,12,-1
 81 384 l 25,5,-1
EndSplineSet
EndChar

StartChar: uni044D
Encoding: 1101 1101 160
Width: 384
Flags: W
LayerCount: 2
Fore
SplineSet
296 192 m 25,0,-1
 168 192 l 1,1,-1
 182 256 l 1,2,-1
 310 256 l 1,3,-1
 317 288 l 25,4,-1
 292 320 l 25,5,-1
 164 320 l 25,6,-1
 125 288 l 1,7,-1
 118 256 l 25,8,-1
 54 256 l 25,9,-1
 68 320 l 1,10,-1
 145 384 l 25,11,-1
 337 384 l 25,12,-1
 388 320 l 1,13,-1
 347 128 l 1,14,-1
 269 64 l 1,15,-1
 77 64 l 25,16,-1
 27 128 l 1,17,-1
 40 192 l 25,18,-1
 104 192 l 25,19,-1
 98 160 l 1,20,-1
 123 128 l 25,21,-1
 251 128 l 25,22,-1
 290 160 l 1,23,-1
 296 192 l 25,0,-1
EndSplineSet
EndChar

StartChar: uni044F
Encoding: 1103 1103 161
Width: 384
Flags: W
LayerCount: 2
Fore
SplineSet
125 288 m 25,0,-1
 150 256 l 25,1,-1
 310 256 l 1,2,-1
 324 320 l 25,3,-1
 164 320 l 25,4,-1
 125 288 l 25,0,-1
333 64 m 1,5,-1
 269 64 l 1,6,-1
 290 160 l 25,7,-1
 77 64 l 1,8,-1
 13 64 l 25,9,-1
 20 96 l 1,10,-1
 232 192 l 25,11,-1
 104 192 l 1,12,-1
 54 256 l 1,13,-1
 68 320 l 25,14,-1
 145 384 l 25,15,-1
 401 384 l 25,16,-1
 333 64 l 1,5,-1
EndSplineSet
EndChar

StartChar: uni2116
Encoding: 8470 8470 162
Width: 384
Flags: W
LayerCount: 2
Fore
SplineSet
330 352 m 25,0,-1
 458 352 l 25,1,-1
 452 320 l 25,2,-1
 324 320 l 25,3,-1
 330 352 l 25,0,-1
481 608 m 25,4,-1
 417 608 l 25,5,-1
 376 416 l 25,6,-1
 440 416 l 25,7,-1
 481 608 l 25,4,-1
424 640 m 25,8,-1
 488 640 l 25,9,-1
 513 608 l 25,10,-1
 472 416 l 25,11,-1
 433 384 l 25,12,-1
 369 384 l 25,13,-1
 344 416 l 25,14,-1
 385 608 l 25,15,-1
 424 640 l 25,8,-1
136 640 m 25,16,-1
 200 640 l 25,17,-1
 205 64 l 25,18,-1
 141 64 l 25,19,-1
 136 640 l 25,16,-1
264 640 m 25,20,-1
 328 640 l 25,21,-1
 205 64 l 25,22,-1
 141 64 l 25,23,-1
 264 640 l 25,20,-1
136 640 m 25,24,-1
 200 640 l 25,25,-1
 77 64 l 25,26,-1
 13 64 l 25,27,-1
 136 640 l 25,24,-1
EndSplineSet
EndChar

StartChar: uni00AD
Encoding: 173 173 163
Width: 384
Flags: W
LayerCount: 2
Fore
SplineSet
81 384 m 29,0,-1
 401 384 l 29,1,-1
 388 320 l 29,2,-1
 68 320 l 29,3,-1
 81 384 l 29,0,-1
EndSplineSet
EndChar
